<?xml version="1.0" encoding="utf-8"?>
<svg xmlns="http://www.w3.org/2000/svg" viewBox="0 0 50 50" fill="#000000"><path d="M 25 6 C 23.355469 6 22 7.355469 22 9 L 22 10.40625 C 20.054688 10.863281 18.355469 11.765625 17.046875 13.082031 C 15.09375 15.054688 14 17.847656 14 21.0625 L 14 28.863281 C 14 30.699219 12.996094 33.027344 11.960938 34.753906 L 10.167969 37.445313 C 9.964844 37.753906 9.945313 38.148438 10.117188 38.472656 C 10.292969 38.796875 10.632813 39 11 39 L 20 39 C 20 41.746094 22.253906 44 25 44 C 27.746094 44 30 41.746094 30 39 L 39 39 C 39.367188 39 39.707031 38.796875 39.882813 38.472656 C 40.054688 38.148438 40.035156 37.753906 39.832031 37.445313 L 38.046875 34.765625 L 38.042969 34.761719 C 36.996094 33.015625 36 30.835938 36 29 L 36 21.199219 C 36 15.832031 32.804688 11.675781 28 10.441406 L 28 9 C 28 7.355469 26.644531 6 25 6 Z M 25 8 C 25.554688 8 26 8.445313 26 9 L 26 10.113281 C 25.777344 10.09375 25.558594 10.070313 25.332031 10.0625 C 25.226563 10.023438 25.113281 10.003906 25 10 C 24.890625 10 24.785156 10.019531 24.683594 10.058594 C 24.449219 10.0625 24.226563 10.085938 24 10.101563 L 24 9 C 24 8.445313 24.445313 8 25 8 Z M 3.480469 9.476563 C 1.25 13.101563 0 17.417969 0 22 C 0 26.582031 1.25 30.898438 3.480469 34.523438 L 5.1875 33.476563 C 3.152344 30.167969 2 26.21875 2 22 C 2 17.78125 3.152344 13.832031 5.1875 10.523438 Z M 46.519531 9.476563 L 44.8125 10.523438 C 46.847656 13.832031 48 17.78125 48 22 C 48 26.21875 46.847656 30.167969 44.8125 33.476563 L 46.519531 34.523438 C 48.75 30.898438 50 26.582031 50 22 C 50 17.417969 48.75 13.101563 46.519531 9.476563 Z M 25 12 C 30.511719 12 34 15.667969 34 21.199219 L 34 29 C 34 31.511719 35.203125 33.917969 36.328125 35.796875 C 36.339844 35.808594 36.347656 35.824219 36.355469 35.835938 L 37.128906 37 L 12.871094 37 L 13.644531 35.835938 C 13.652344 35.824219 13.660156 35.808594 13.671875 35.796875 C 14.808594 33.902344 16 31.375 16 28.863281 L 16 21.0625 C 16 18.296875 16.914063 16.058594 18.46875 14.492188 C 20.019531 12.925781 22.238281 12 25 12 Z M 7.816406 12.140625 C 5.996094 15.082031 5 18.355469 5 22 C 5 25.671875 6.128906 29.046875 7.808594 31.847656 L 9.523438 30.816406 C 8.007813 28.285156 7 25.261719 7 22 C 7 18.710938 7.871094 15.851563 9.515625 13.191406 Z M 42.183594 12.140625 L 40.484375 13.191406 C 42.128906 15.851563 43 18.710938 43 22 C 43 25.261719 41.992188 28.285156 40.472656 30.816406 L 42.191406 31.847656 C 43.871094 29.046875 45 25.671875 45 22 C 45 18.355469 44.003906 15.082031 42.183594 12.140625 Z M 22 39 L 28 39 C 28 40.65625 26.65625 42 25 42 C 23.34375 42 22 40.65625 22 39 Z" fill="#000000"/></svg>
