<svg xmlns="http://www.w3.org/2000/svg" viewBox="0 0 48 48"><path fill="#455a64" d="M45,25.9C45,14.3,35.6,5,24,5S3,14.3,3,25.9c0,8.8,4.7,11.5,4,12.4C3.3,42.9,4.8,43,20.5,43h7 c15.7,0,17.2-0.1,13.5-4.7C40.3,37.4,45,34.7,45,25.9z M24,40.3c-7.9,0-14.4-6.4-14.4-14.4c0-7.9,6.4-14.4,14.4-14.4 S38.4,18,38.4,25.9C38.4,33.8,31.9,40.3,24,40.3z"/><path fill="#263238" d="M24 5C24 5 24 5 24 5L24 5 24 5 24 5 24 5 24 5 24 5 24 5 24 5 24 5 24 5C23.9 5 23.9 5 24 5 23.9 5 23.9 5 24 5 23.9 5 23.9 5 24 5L24 5 24 5 24 5C23.9 5 23.9 5 24 5 23.9 5 23.9 5 24 5L24 5c-.1 0-.1 0-.1 0s0 0 0 0 0 0 0 0 0 0 0 0c0 0 0 0 0 0h0c0 0 0 0 0 0s0 0 0 0 0 0 0 0c0 0 0 0 0 0 0 0 0 0 0 0s0 0 0 0c0 0 0 0 0 0 0 0 0 0 0 0 0 0 0 0 0 0 0 0 0 0 0 0s0 0 0 0 0 0 0 0c0 0 0 0 0 0 0 0 0 0 0 0s0 0 0 0 0 0 0 0c-.5 0-1.1 0-1.6.1 0 0 0 0 0 0 0 0 0 0 0 0 0 0 0 0 0 0s0 0 0 0 0 0 0 0L22.3 7c.6-.1 1.2-.1 1.7-.1V5zM20.2 5.3c-.6.1-1.1.2-1.7.4 0 0 0 0 0 0 0 0 0 0 0 0s0 0 0 0c0 0 0 0 0 0s0 0 0 0l0 0h0c0 0 0 0 0 0 0 0 0 0 0 0h0c0 0 0 0 0 0 0 0 0 0 0 0s0 0 0 0c0 0 0 0 0 0 0 0 0 0 0 0 0 0 0 0 0 0 0 0 0 0 0 0 0 0 0 0 0 0s0 0 0 0c0 0 0 0 0 0 0 0 0 0 0 0s0 0 0 0h0c0 0 0 0 0 0 0 0 0 0 0 0s0 0 0 0l0 0c0 0 0 0 0 0 0 0 0 0 0 0 0 0 0 0 0 0 0 0 0 0 0 0 0 0 0 0 0 0 0 0 0 0 0 0s0 0 0 0h0l.5 1.8c.6-.2 1.1-.3 1.7-.4L20.2 5.3zM16.5 6.4c-.1 0-.2.1-.3.1 0 0 0 0 0 0 0 0 0 0 0 0 0 0 0 0 0 0 0 0 0 0 0 0 0 0 0 0 0 0h0c0 0 0 0 0 0 0 0 0 0 0 0l0 0h0l0 0c0 0 0 0 0 0 0 0 0 0 0 0h0l0 0c0 0 0 0 0 0-.4.2-.9.4-1.3.6l.8 1.7c.5-.3 1.1-.5 1.6-.7L16.5 6.4zM13.1 8c-.5.3-1.1.7-1.6 1.1l1.1 1.5c.5-.3.9-.7 1.4-1L13.1 8zM10 10.3c-.4.3-.8.7-1.1 1.1v0c0 0 0 0 0 0 0 0 0 0 0 0 0 0 0 0 0 0 0 0 0 0 0 0 0 0 0 0 0 0 0 0 0 0 0 0 0 0 0 0 0 0 0 0 0 0 0 0 0 0 0 0 0 0v0c0 0 0 0 0 0 0 0 0 0 0 0 0 0 0 0 0 0 0 0 0 0 0 0 0 0 0 0 0 0 0 0 0 0 0 0 0 0 0 0 0 0 0 0 0 0 0 0 0 0 0 0 0 0l0 0c0 0 0 0 0 0l0 0c0 0 0 0 0 0 0 0 0 0 0 0 0 0 0 0 0 0 0 0 0 0 0 0l0 0c0 0 0 0 0 0 0 0 0 0 0 0 0 0 0 0 0 0 0 0 0 0 0 0 0 0 0 0 0 0 0 0 0 0 0 0 0 0 0 0 0 0 0 0 0 0 0 0 0 0 0 0 0 0l1.4 1.3c.4-.4.8-.8 1.2-1.2L10 10.3zM7.4 13.1c-.2.3-.4.5-.6.8 0 0 0 0 0 0h0c0 0 0 0 0 0h0c0 0 0 0 0 0 0 0 0 0 0 0 0 0 0 0 0 0 0 0 0 0 0 0 0 0 0 0 0 0 0 0 0 0 0 0 0 0 0 0 0 0 0 0 0 0 0 0 0 0 0 0 0 0 0 0 0 0 0 0 0 0 0 0 0 0 0 0 0 0 0 0 0 0 0 0 0 0 0 0 0 0 0 0 0 0 0 0 0 0 0 0 0 0 0 0 0 0 0 0 0 0 0 0 0 0 0 0 0 0 0 0 0 0 0 0 0 0 0 0 0 0 0 0 0 0 0 0 0 0 0 0 0 0 0 0 0 0-.1.2-.3.4-.4.6l1.6 1c.3-.5.7-1 1-1.4L7.4 13.1zM5.4 16.2C5.4 16.3 5.4 16.3 5.4 16.2 5.4 16.3 5.4 16.3 5.4 16.2 5.4 16.3 5.4 16.3 5.4 16.2 5.4 16.3 5.4 16.3 5.4 16.2 5.4 16.3 5.4 16.3 5.4 16.2 5.4 16.3 5.4 16.3 5.4 16.2L5.4 16.2C5.4 16.3 5.4 16.3 5.4 16.2 5.3 16.3 5.3 16.3 5.4 16.2L5.4 16.2C5.3 16.3 5.3 16.3 5.4 16.2 5.3 16.3 5.3 16.3 5.4 16.2 5.3 16.3 5.3 16.3 5.4 16.2 5.3 16.3 5.3 16.3 5.4 16.2 5.3 16.3 5.3 16.3 5.4 16.2 5.3 16.3 5.3 16.3 5.4 16.2 5.3 16.3 5.3 16.3 5.4 16.2 5.3 16.3 5.3 16.3 5.4 16.2 5.3 16.3 5.3 16.3 5.4 16.2L5.4 16.2 5.4 16.2C5.3 16.3 5.3 16.3 5.4 16.2 5.3 16.3 5.3 16.3 5.4 16.2c0 .1 0 .1-.1.1 0 0 0 0 0 0s0 0 0 0c0 0 0 .1 0 .1-.3.5-.5 1-.7 1.5l1.8.7c.2-.5.5-1.1.7-1.6L5.4 16.2zM3.9 19.8C3.9 19.8 3.9 19.8 3.9 19.8c0 .1 0 .1 0 .1v0 0c0 0 0 0 0 0 0 0 0 0 0 0 0 0 0 0 0 0 0 0 0 0 0 0s0 0 0 0c0 0 0 0 0 0 0 0 0 0 0 0v0c0 0 0 0 0 0 0 0 0 0 0 0 0 0 0 0 0 0v0c0 0 0 0 0 0 0 0 0 0 0 0s0 0 0 0c-.1.4-.2.8-.3 1.2 0 0 0 0 0 0s0 0 0 0c0 0 0 0 0 0 0 0 0 0 0 0 0 0 0 0 0 0s0 0 0 0c0 0 0 0 0 0 0 0 0 0 0 0 0 0 0 0 0 0s0 0 0 0c0 0 0 0 0 0 0 0 0 0 0 0s0 0 0 0 0 0 0 0 0 0 0 0c0 .1-.1.2-.1.3L5.3 22c.1-.6.3-1.1.4-1.7L3.9 19.8zM3.1 23.5c0 .1 0 .2 0 .4 0 0 0 0 0 0 0 0 0 0 0 0 0 0 0 0 0 0 0 0 0 0 0 0 0 0 0 0 0 0 0 0 0 0 0 0 0 0 0 0 0 0 0 0 0 0 0 0 0 0 0 0 0 0 0 0 0 0 0 0 0 0 0 0 0 0v0c0 0 0 0 0 0s0 0 0 0 0 0 0 0c0 0 0 0 0 0 0 0 0 0 0 0 0 0 0 0 0 0v0c0 0 0 0 0 0C3 24.4 3 24.9 3 25.4l1.9 0c0-.6.1-1.2.1-1.7L3.1 23.5zM4.9 27.2L3 27.3c0 .2 0 .4 0 .5 0 0 0 0 0 0 0 0 0 0 0 0s0 0 0 0 0 0 0 0c0 0 0 0 0 0s0 0 0 0c0 0 0 0 0 0 0 0 0 0 0 0v0c0 0 0 0 0 0 0 0 0 0 0 0s0 0 0 0 0 0 0 0 0 0 0 0v0c0 0 0 0 0 0s0 0 0 0c0 0 0 0 0 0l0 0c0 0 0 0 0 0v0c0 0 0 0 0 0s0 0 0 0c0 0 0 0 0 0 0 0 0 0 0 0 0 0 0 0 0 0 0 0 0 0 0 0 0 0 0 0 0 0s0 0 0 0c0 0 0 0 0 0s0 0 0 0c0 0 0 0 0 0 0 0 0 0 0 0v0c0 0 0 0 0 0 0 0 0 0 0 0 0 0 0 0 0 0 0 0 0 0 0 0 0 0 0 0 0 0s0 0 0 0c0 0 0 0 0 0 0 0 0 0 0 0 0 0 0 0 0 0s0 0 0 0c0 .1 0 .3.1.4 0 0 0 0 0 0 0 0 0 0 0 0 0 0 0 0 0 0 0 0 0 0 0 0 0 0 0 0 0 0s0 0 0 0c0 0 0 0 0 0s0 0 0 0c0 0 0 0 0 0 0 0 0 0 0 0 0 0 0 0 0 0 0 0 0 0 0 0v0c0 0 0 0 0 0 0 0 0 0 0 0v0c0 0 0 0 0 0 0 0 0 0 0 0l0 0c0 0 0 0 0 0 0 0 0 0 0 0 0 0 0 0 0 0s0 0 0 0v0 0c0 0 0 0 0 0 0 0 0 0 0 0 0 0 0 0 0 0v0c0 0 0 0 0 0 0 0 0 0 0 0s0 0 0 0c0 0 0 0 0 0s0 0 0 0c0 0 0 0 0 0 0 0 0 0 0 0s0 0 0 0c0 0 0 0 0 0 0 0 0 0 0 0v0c0 0 0 0 0 0 0 .1 0 .2 0 .3l1.9-.3C5 28.3 5 27.7 4.9 27.2zM5.5 30.5L3.6 31c.1.5.3.9.4 1.3 0 0 0 0 0 0 0 0 0 0 0 0 0 0 0 0 0 0s0 0 0 0v0c0 0 0 0 0 0 0 0 0 0 0 0 0 0 0 0 0 0s0 0 0 0c0 0 0 0 0 0 0 0 0 0 0 0 0 0 0 0 0 0 0 0 0 0 0 0 0 0 0 0 0 0 0 0 0 0 0 0 0 0 0 0 0 0 0 0 0 0 0 0 0 0 0 0 0 0s0 0 0 0c0 0 0 0 0 0s0 0 0 0 0 0 0 0 0 0 0 0v0 0c0 .1.1.2.1.4L6 32.1C5.8 31.6 5.6 31.1 5.5 30.5zM6.7 33.7L5 34.5c.3.6.7 1.2 1 1.6l1.6-1.1C7.4 34.8 7 34.3 6.7 33.7zM8.8 37.1L7 37.8c0 0 0 0 0 .1 0 0 0 0 0 0 0 0 0 0 0 0v0c0 0 0 0 0 0s0 0 0 0v0c0 .1 0 .2 0 .3 0 0 0 0 0 0s0 0 0 0c0 0 0 0 0 0s0 0 0 0c0 0 0 0 0 0v0c0 0 0 0 0 0v0c0 0 0 0 0 0v0c0 0 0 0 0 0-.3.4-.6.8-.9 1.2l1.6 1.1c.2-.3.5-.6.8-1C8.7 39.1 9.3 38.3 8.8 37.1zM5.3 41c0 .3.1.6.4.9 0 0 0 0 0 0 0 0 0 0 0 0 0 0 0 0 0 0 0 0 0 0 0 0 0 0 0 0 0 0 0 0 0 0 0 0s0 0 0 0c0 0 0 0 0 0h0c0 0 0 0 0 0 0 0 0 0 0 0h0c0 0 0 0 0 0 0 0 0 0 0 0 0 0 0 0 0 0s0 0 0 0v0c0 0 0 0 0 0 0 0 0 0 0 0v0c0 0 0 0 0 0v0c0 0 0 0 0 0v0h0c0 0 0 0 0 0 0 0 0 0 0 0 0 0 0 0 0 0 0 0 0 0 0 0v0c0 0 0 0 0 0 0 0 0 0 0 0h0c0 0 0 0 0 0 .2.1.4.2.7.3l.7-1.1L5.3 41zM8.6 40.8l-.2 1.9c.6.1 1.2.1 1.9.2l.1-1.9C9.7 40.9 9.1 40.9 8.6 40.8zM12.2 41l-.1 1.9c.6 0 1.2 0 1.9 0l0-1.9C13.4 41.1 12.8 41 12.2 41zM16 41.1l0 1.9c.6 0 1.2 0 1.9 0l0-1.9C17.2 41.1 16.6 41.1 16 41.1zM33.2 41.1c-.6 0-1.2 0-1.9 0l0 1.9c.7 0 1.3 0 1.9 0L33.2 41.1zM36.9 41c-.6 0-1.2 0-1.9.1l0 1.9c.7 0 1.3 0 1.9-.1L36.9 41zM40.4 40.6c-.4.1-1 .2-1.7.2l.2 1.9c.8-.1 1.4-.1 1.9-.3L40.4 40.6zM42.6 40.8C42.6 40.8 42.6 40.8 42.6 40.8 42.6 40.8 42.6 40.8 42.6 40.8L42.6 40.8C42.6 40.8 42.6 40.8 42.6 40.8 42.6 40.8 42.6 40.8 42.6 40.8L42.6 40.8C42.6 40.7 42.6 40.7 42.6 40.8L42.6 40.8 42.6 40.8C42.6 40.7 42.6 40.7 42.6 40.8c-.1-.3-.2-.5-.4-.8L41 40.6l.6.5.9.7C42.7 41.5 42.7 41.2 42.6 40.8zM40 35.7c-.6.9-1.6 2.3-.5 3.7l.2.2 1.5-1.2c-.1-.1-.1-.1-.2-.2 0 0 0 0 0 0 0 0 0 0 0 0 0 0 0 0 0 0 0 0 0 0 0 0 0 0 0 0 0 0 0 0 0 0 0 0h0c0 0 0 0 0 0 0 0 0 0 0 0h0c0 0 0 0 0 0s0 0 0 0c0 0 0 0 0 0s0 0 0 0c0 0 0 0 0 0 0 0 0 0 0 0v0h0c0 0 0 0 0 0s0 0 0 0c0 0 0 0 0 0v0c0 0 0 0 0 0s0 0 0 0 0 0 0 0c0 0 0 0 0 0 0 0 0 0 0 0v0h0v0h0c0 0 0 0 0 0s0 0 0 0 0 0 0 0v0c0 0 0 0 0 0 0 0 0 0 0 0 0 0 0 0 0 0s0 0 0 0c0 0 0 0 0 0s0 0 0 0c0 0 0 0 0 0 0 0 0 0 0 0h0c0-.3.2-.7.7-1.3L40 35.7zM41.8 32.7c-.2.5-.5 1-.8 1.5l1.6 1c.1-.1.1-.2.2-.4 0 0 0 0 0 0 0 0 0 0 0 0v0c0 0 0 0 0 0v0 0c0 0 0 0 0 0s0 0 0 0c0 0 0 0 0 0 0 0 0 0 0 0v0 0c0 0 0 0 0 0s0 0 0 0 0 0 0 0c0 0 0 0 0 0s0 0 0 0c0 0 0 0 0 0 0 0 0 0 0 0 0 0 0 0 0 0s0 0 0 0h0v0c0 0 0 0 0 0s0 0 0 0 0 0 0 0c0 0 0 0 0 0 0 0 0 0 0 0l0 0c0 0 0 0 0 0 0 0 0 0 0 0 0 0 0 0 0 0 0 0 0 0 0 0l0 0v0h0v0c0 0 0 0 0 0 0 0 0 0 0 0s0 0 0 0c0 0 0 0 0 0 0 0 0 0 0 0h0c0 0 0 0 0 0s0 0 0 0c0 0 0 0 0 0 0 0 0 0 0 0 0 0 0 0 0 0v0c0 0 0 0 0 0 0 0 0 0 0 0 0 0 0 0 0 0v0c0 0 0 0 0 0 0 0 0 0 0 0 0 0 0 0 0 0 0 0 0 0 0 0l0 0c0 0 0 0 0 0s0 0 0 0v0 0c0 0 0 0 0 0 0 0 0 0 0 0 0 0 0 0 0 0v0c0 0 0 0 0 0 0 0 0 0 0 0v0c0 0 0 0 0 0s0 0 0 0c0 0 0 0 0 0 0 0 0 0 0 0 0 0 0 0 0 0 0 0 0 0 0 0 0 0 0 0 0 0 0 0 0 0 0 0 0 0 0 0 0 0s0 0 0 0c0 0 0 0 0 0 0 0 0 0 0 0 0 0 0 0 0 0 0 0 0 0 0 0s0 0 0 0 0 0 0 0c0 0 0 0 0 0 0 0 0 0 0 0 0 0 0 0 0 0 0 0 0 0 0 0s0 0 0 0c0 0 0 0 0 0 0 0 0 0 0 0 0 0 0 0 0 0s0 0 0 0c0 0 0 0 0 0 0 0 0 0 0 0v0c0 0 0 0 0 0 0 0 0 0 0 0 0 0 0 0 0 0 0 0 0 0 0 0 0 0 0 0 0 0 0 0 0 0 0 0s0 0 0 0c0 0 0 0 0 0 0 0 0 0 0 0l0 0c0 0 0 0 0 0s0 0 0 0c0 0 0 0 0 0 0 0 0 0 0 0 0 0 0 0 0 0v0l0 0v0c0 0 0 0 0 0v0c0 0 0 0 0 0 0 0 0 0 0 0s0 0 0 0c0 0 0 0 0 0 0 0 0 0 0 0 0 0 0 0 0 0 0 0 0 0 0 0 0 0 0 0 0-.1 0 0 0 0 0 0 0 0 0 0 0 0 0 0 0 0 0 0 .1-.2.2-.4.3-.7L41.8 32.7zM42.8 29.5c-.1.6-.3 1.1-.4 1.6l1.8.6c.1-.2.1-.3.1-.5 0 0 0 0 0 0 0 0 0 0 0 0 0 0 0 0 0 0 0 0 0 0 0 0 0 0 0 0 0 0v0c0 0 0 0 0 0 0 0 0 0 0 0 0 0 0 0 0 0 0 0 0 0 0 0 0 0 0 0 0 0 0 0 0 0 0 0 0 0 0 0 0 0s0 0 0 0 0 0 0 0c0 0 0 0 0 0 0 0 0 0 0 0 0 0 0 0 0 0 0 0 0 0 0 0v0 0c0 0 0 0 0 0 0 0 0 0 0 0s0 0 0 0c0 0 0 0 0 0 0 0 0 0 0 0 0 0 0 0 0 0 .1-.4.2-.7.3-1.1L42.8 29.5zM43.1 26.1c0 .6 0 1.2-.1 1.7l1.9.2c.1-.6.1-1.2.1-1.9L43.1 26.1zM44.7 22.3l-1.9.3c.1.6.2 1.1.2 1.7l1.9-.2c0-.5-.1-.9-.2-1.4 0 0 0 0 0 0 0 0 0 0 0 0v0c0 0 0 0 0 0 0 0 0 0 0 0 0 0 0 0 0 0 0 0 0 0 0 0v0l0 0v0 0c0 0 0 0 0 0 0 0 0 0 0 0v0 0c0 0 0 0 0 0 0 0 0 0 0 0h0c0 0 0 0 0 0 0 0 0 0 0 0 0 0 0 0 0 0v0c0 0 0 0 0 0 0 0 0 0 0 0v0c0 0 0 0 0 0s0 0 0 0C44.7 22.6 44.7 22.4 44.7 22.3zM43.7 18.7l-1.8.7c.2.5.4 1.1.5 1.6l1.8-.5c0 0 0-.1 0-.1 0 0 0 0 0 0 0 0 0 0 0 0 0 0 0 0 0 0 0 0 0 0 0 0s0 0 0 0c0 0 0 0 0 0 0 0 0 0 0 0v0 0c0 0 0 0 0 0v0c0 0 0 0 0 0 0 0 0 0 0 0v0c0 0 0 0 0 0 0 0 0 0 0 0 0 0 0 0 0 0 0 0 0 0 0 0v0 0 0c0 0 0 0 0 0 0 0 0 0 0 0 0 0 0 0 0 0 0 0 0-.1 0-.1 0-.1-.1-.2-.1-.3 0 0 0 0 0 0 0 0 0 0 0 0 0 0 0 0 0 0 0 0 0 0 0 0v0c0 0 0 0 0 0 0 0 0 0 0 0s0 0 0 0 0 0 0 0 0 0 0 0c0 0 0 0 0 0 0 0 0 0 0 0v0 0c0 0 0 0 0 0s0 0 0 0c0 0 0 0 0 0 0 0 0 0 0 0 0 0 0 0 0 0v0c0 0 0 0 0 0 0 0 0 0 0 0 0 0 0 0 0 0 0 0 0 0 0 0s0 0 0 0c0 0 0 0 0 0C44 19.4 43.8 19 43.7 18.7zM42.1 15.2l-1.6 1c.3.5.6 1 .8 1.5l1.7-.8c-.1-.2-.2-.4-.3-.6h0c0 0 0 0 0 0 0 0 0 0 0 0v0c0 0 0 0 0 0 0 0 0 0 0 0 0 0 0 0 0 0 0 0 0 0 0 0s0 0 0 0 0 0 0 0c0 0 0 0 0 0h0c0 0 0 0 0 0 0 0 0 0 0 0 0 0 0 0 0 0 0 0 0 0 0 0 0 0 0 0 0 0 0 0 0 0 0 0 0 0 0 0 0 0 0 0 0 0 0 0 0 0 0 0 0 0 0 0 0 0 0 0 0 0 0 0 0 0 0 0 0 0 0 0 0 0 0 0 0 0 0 0 0 0 0 0 0 0 0 0 0 0 0 0 0 0 0 0 0 0 0 0 0 0s0 0 0 0l0 0c0 0 0 0 0 0 0 0 0 0 0 0C42.4 15.8 42.2 15.5 42.1 15.2zM39.8 12.2l-1.4 1.2c.4.4.7.9 1.1 1.4l1.5-1.1C40.6 13.1 40.3 12.6 39.8 12.2zM37.1 9.5L35.9 11c.5.4.9.7 1.3 1.1l1.3-1.4c0 0 0 0 0 0 0 0 0 0 0 0 0 0 0 0 0 0l0 0c0 0 0 0 0 0 0 0 0 0 0 0 0 0 0 0 0 0 0 0 0 0 0 0 0 0 0 0 0 0 0 0 0 0 0 0 0 0 0 0 0 0 0 0 0 0 0 0 0 0 0 0 0 0 0 0 0 0 0 0 0 0 0 0 0 0l0 0c0 0 0 0 0 0 0 0 0 0 0 0 0 0 0 0 0 0 0 0 0 0 0 0 0 0 0 0 0 0 0 0 0 0 0 0 0 0 0 0 0 0 0 0 0 0 0 0 0 0 0 0 0 0 0 0 0 0 0 0 0 0 0 0 0 0 0 0 0 0 0 0 0 0 0 0 0 0 0 0 0 0 0 0h0c0 0 0 0 0 0 0 0 0 0 0 0 0 0 0 0 0 0l0 0c0 0 0 0 0 0 0 0 0 0 0 0 0 0 0 0 0 0 0 0 0 0 0 0s0 0 0 0c0 0 0 0 0 0 0 0 0 0 0 0 0 0 0 0 0 0 0 0 0 0 0 0 0 0 0 0 0 0 0 0 0 0 0 0 0 0 0 0 0 0s0 0 0 0 0 0 0 0c0 0 0 0 0 0 0 0 0 0 0 0 0 0 0 0 0 0s0 0 0 0c0 0 0 0 0 0v0c0 0 0 0 0 0 0 0 0 0 0 0h0c0 0 0 0 0 0 0 0 0 0 0 0 0 0 0 0 0 0s0 0 0 0c0 0 0 0 0 0 0 0 0 0 0 0 0 0 0 0 0 0v0c0 0 0 0 0 0 0 0 0 0 0 0 0 0 0 0 0 0 0 0 0 0 0 0 0 0 0 0 0 0 0 0 0 0 0 0 0 0 0 0 0 0 0 0 0 0 0 0 0 0 0 0 0 0 0 0 0 0 0 0v0c0 0 0 0 0 0 0 0 0 0 0 0 0 0 0 0 0 0 0 0 0 0 0 0 0 0 0 0 0 0v0c0 0 0 0 0 0 0 0 0 0 0 0 0 0 0 0 0 0 0 0 0 0 0 0s0 0 0 0l0 0c0 0 0 0 0 0l0 0c0 0 0 0 0 0h0c0 0 0 0 0 0 0 0 0 0 0 0 0 0 0 0 0 0 0 0 0 0 0 0 0 0 0 0 0 0 0 0 0 0 0 0 0 0 0 0 0 0 0 0 0 0 0 0 0 0 0 0 0 0l0 0c0 0 0 0 0 0 0 0 0 0 0 0l0 0c0 0 0 0 0 0 0 0 0 0 0 0l0 0c0 0 0 0 0 0 0 0 0 0 0 0 0 0 0 0 0 0 0 0 0 0 0 0 0 0 0 0 0 0 0 0 0 0 0 0h0c0 0 0 0 0 0 0 0 0 0 0 0 0 0 0 0 0 0 0 0 0 0 0 0 0 0 0 0 0 0 0 0 0 0 0 0s0 0 0 0c0 0 0 0 0 0 0 0 0 0 0 0C37.4 9.8 37.2 9.7 37.1 9.5zM33.9 7.5L33 9.1c.5.3 1 .6 1.5.9l1-1.6c0 0 0 0 0 0s0 0 0 0c0 0 0 0 0 0h0c0 0 0 0 0 0 0 0 0 0 0 0 0 0 0 0 0 0h0c0 0 0 0 0 0 0 0 0 0 0 0-.3-.2-.6-.3-.8-.5 0 0 0 0 0 0 0 0 0 0 0 0 0 0 0 0 0 0h0c0 0 0 0 0 0 0 0 0 0 0 0 0 0 0 0 0 0 0 0 0 0 0 0s0 0 0 0c0 0 0 0 0 0 0 0 0 0 0 0s0 0 0 0c0 0 0 0 0 0 0 0 0 0 0 0 0 0 0 0 0 0 0 0 0 0 0 0 0 0 0 0 0 0 0 0 0 0 0 0 0 0 0 0 0 0 0 0 0 0 0 0 0 0 0 0 0 0 0 0 0 0 0 0h0c0 0 0 0 0 0 0 0 0 0 0 0 0 0 0 0 0 0 0 0 0 0 0 0 0 0 0 0 0 0 0 0 0 0 0 0 0 0 0 0 0 0h0c0 0 0 0 0 0 0 0 0 0 0 0 0 0 0 0 0 0h0c0 0 0 0 0 0 0 0 0 0 0 0 0 0 0 0 0 0h0c0 0 0 0 0 0v0c0 0 0 0 0 0 0 0 0 0 0 0 0 0 0 0 0 0 0 0 0 0 0 0h0c0 0 0 0 0 0 0 0 0 0 0 0s0 0 0 0c0 0 0 0 0 0v0c0 0 0 0 0 0C34.1 7.5 34 7.5 33.9 7.5zM30.4 6l-.6 1.8c.5.2 1.1.4 1.6.6l.7-1.8C31.6 6.4 31 6.2 30.4 6zM26.7 5.2l-.2 1.9c.6.1 1.1.2 1.7.3l.4-1.9c0 0 0 0 0 0-.2-.1-.5-.1-.7-.1 0 0-.1 0-.1 0 0 0 0 0-.1 0h0c0 0 0 0 0 0s0 0 0 0 0 0 0 0h0 0 0c0 0 0 0 0 0 0 0 0 0 0 0h0c0 0 0 0 0 0 0 0 0 0 0 0h0 0c0 0 0 0 0 0h0c0 0 0 0 0 0 0 0 0 0 0 0 0 0 0 0 0 0h0 0c0 0 0 0 0 0 0 0 0 0 0 0h0 0 0 0c0 0 0 0 0 0 0 0 0 0 0 0s0 0 0 0c0 0 0 0 0 0 0 0 0 0 0 0 0 0 0 0 0 0 0 0 0 0 0 0 0 0 0 0 0 0h0 0 0 0c0 0 0 0 0 0h0c0 0 0 0 0 0h0 0c0 0 0 0 0 0 0 0 0 0 0 0 0 0 0 0 0 0 0 0 0 0 0 0 0 0 0 0 0 0 0 0 0 0 0 0h0c0 0 0 0 0 0h0c0 0 0 0 0 0s0 0 0 0v0c0 0 0 0 0 0 0 0 0 0 0 0 0 0 0 0 0 0s0 0 0 0c0 0 0 0 0 0 0 0 0 0 0 0 0 0 0 0 0 0l0 0c0 0 0 0 0 0h0c0 0 0 0 0 0 0 0 0 0 0 0s0 0 0 0c0 0 0 0 0 0s0 0 0 0c0 0 0 0 0 0s0 0 0 0c0 0 0 0 0 0h0c0 0 0 0 0 0 0 0 0 0 0 0 0 0 0 0 0 0s0 0 0 0c0 0 0 0 0 0 0 0 0 0 0 0h0c0 0 0 0 0 0 0 0 0 0 0 0h0c0 0 0 0 0 0h0c0 0 0 0 0 0 0 0 0 0 0 0s0 0 0 0c0 0 0 0 0 0s0 0 0 0c0 0 0 0 0 0 0 0 0 0 0 0 0 0 0 0 0 0 0 0 0 0 0 0 0 0 0 0 0 0 0 0 0 0 0 0h0c0 0 0 0 0 0 0 0 0 0 0 0h0 0c0 0 0 0 0 0s0 0 0 0c0 0 0 0 0 0 0 0 0 0 0 0 0 0 0 0 0 0 0 0 0 0 0 0 0 0 0 0 0 0 0 0 0 0 0 0 0 0 0 0 0 0 0 0 0 0 0 0 0 0 0 0 0 0 0 0 0 0 0 0 0 0 0 0 0 0 0 0 0 0 0 0s0 0 0 0h0c0 0 0 0 0 0 0 0 0 0 0 0 0 0 0 0 0 0 0 0 0 0 0 0s0 0 0 0c0 0 0 0 0 0 0 0 0 0 0 0 0 0 0 0 0 0s0 0 0 0c0 0 0 0 0 0s0 0 0 0 0 0 0 0C26.9 5.2 26.8 5.2 26.7 5.2zM24 5v1.9c.2 0 .5 0 .7 0L24.8 5c-.2 0-.3 0-.5 0 0 0 0 0 0 0 0 0 0 0 0 0s0 0 0 0c0 0 0 0 0 0h0c0 0 0 0 0 0s0 0 0 0h0c0 0 0 0 0 0s0 0 0 0c0 0 0 0 0 0h0c0 0 0 0 0 0 0 0 0 0 0 0 0 0 0 0 0 0s0 0 0 0c0 0 0 0 0 0S24.1 5 24 5C24.1 5 24.1 5 24 5 24.1 5 24.1 5 24 5L24 5C24.1 5 24.1 5 24 5L24 5C24.1 5 24.1 5 24 5 24.1 5 24.1 5 24 5 24.1 5 24.1 5 24 5 24.1 5 24.1 5 24 5 24 5 24 5 24 5 24 5 24 5 24 5 24 5 24 5 24 5L24 5C24 5 24 5 24 5L24 5C24 5 24 5 24 5zM19.8 41.1V43h1.9v-1.9h-1M27.4 41.1l0 1.9c0 0 1.3 0 1.9 0l0-1.9L27.4 41.1M23.6 41.7V43h1.9v-1.6"/><path fill="#b0bec5" d="M18,25.9c0-3.3,2.7-6,6-6s6,2.7,6,6s-2.7,6-6,6S18,29.2,18,25.9z"/><path fill="#b0bec5" d="M25 23h-2l-1.9-12h5.7L25 23zM23 29h2l2 12h-6L23 29zM27.1 25.2L26 23.5l9.1-8.1 3.1 4.8L27.1 25.2zM20.9 26.8l1.1 1.7-9 8.2-3.2-5.1L20.9 26.8zM22.1 23.5L21 25.1l-11-5.2 3.2-4.7L22.1 23.5zM25.9 28.5l1.1-1.6 11 5.1-3.4 4.9L25.9 28.5z"/><path fill="#37474f" d="M21,26c0-1.7,1.3-3,3-3s3,1.3,3,3c0,1.7-1.3,3-3,3S21,27.7,21,26z"/><path fill="#78909c" d="M24,41.9c-8.8,0-16-7.2-16-16s7.2-16,16-16s16,7.2,16,16S32.8,41.9,24,41.9z M24,11.9 c-7.7,0-14,6.3-14,14s6.3,14,14,14s14-6.3,14-14S31.7,11.9,24,11.9z"/></svg>