<svg xmlns="http://www.w3.org/2000/svg" viewBox="0 0 48 48"><path fill="#455a64" d="M18 36c0 0-2.215-4-8-4s-8 4-8 4v3h16V36zM46 36c0 0-2.215-4-8-4s-8 4-8 4v3h16V36z"/><path fill="#edb405" d="M28,28c0,0,0,4-4,4s-4-4-4-4"/><path fill="#607d8b" d="M36,34.938c0,0-3.32-7.938-12-7.938s-12,7.938-12,7.938V39h24V34.938z"/><path fill="#edbd28" d="M32 19.5c0 .828-.672 1.5-1.5 1.5S29 20.328 29 19.5s.672-1.5 1.5-1.5S32 18.672 32 19.5M19 19.5c0 .828-.672 1.5-1.5 1.5S16 20.328 16 19.5s.672-1.5 1.5-1.5S19 18.672 19 19.5"/><path fill="#edb405" d="M12 29H8v3c0 0-.121 2 1.961 2C12.043 34 12 32 12 32V29zM40 29h-4v3c0 0-.121 2 1.961 2S40 32 40 32V29zM24 32c-4 0-4-4-4-4v-4h8v4C28 28 28 32 24 32z"/><path fill="#ffca28" d="M10 31c-2.758 0-5-2.242-5-5s2.242-5 5-5 5 2.242 5 5S12.758 31 10 31M38 31c-2.758 0-5-2.242-5-5s2.242-5 5-5 5 2.242 5 5S40.758 31 38 31M31 15.68c0-5.879-14-3.828-14 0v4.391c0 3.824 3.133 6.93 7 6.93s7-3.105 7-6.93V15.68z"/><path fill="#424242" d="M9.781 19C7.344 19.219 5 20.93 5 24.574V26l1 1v-3l6.309-2.199L14 24v3l1-1v-1.203c0-2.414-.137-4.203-3-4.797l-.484-1H9.781zM37.781 19C35.344 19.219 33 20.93 33 24.574V26l1 1v-3l6.309-2.199L42 24v3l1-1v-1.203c0-2.414-.137-4.203-3-4.797l-.484-1H37.781zM24 8c-4.859 0-8 4.313-8 8.172V18l2 2v-4l9.199-3L30 16v4l2-2v-.809c0-3.219-.828-6.805-4.801-7.594L26.398 8H24z"/><path fill="#784719" d="M26 19c0 .551.449 1 1 1s1-.449 1-1-.449-1-1-1S26 18.449 26 19M20 19c0 .551.449 1 1 1s1-.449 1-1-.449-1-1-1S20 18.449 20 19"/></svg>