<?xml version="1.0" encoding="utf-8"?>
<svg xmlns="http://www.w3.org/2000/svg" width="128" height="128" viewBox="0 0 128 128" fill="#000000"><path d="M 64 4.6992188 C 46.1 4.6992188 31.5 19.299219 31.5 37.199219 L 31.5 43.699219 L 49 43.699219 C 50.7 43.699219 52 44.999219 52 46.699219 C 52 48.399219 50.7 49.699219 49 49.699219 L 31.5 49.699219 L 26.5 49.699219 C 24.8 49.699219 23.5 50.999219 23.5 52.699219 C 23.5 54.399219 24.8 55.699219 26.5 55.699219 L 29.5 55.699219 C 24.7 55.699219 21.499219 60.799609 23.699219 65.099609 L 29.699219 77 C 30.799219 79.2 34.199219 78.5 34.199219 76 C 34.199219 74.7 35.299609 73.699219 36.599609 73.699219 C 37.599609 73.699219 38.500781 73.099609 38.800781 72.099609 L 39.300781 70.5 C 39.900781 68.8 39.399219 66.899219 38.199219 65.699219 L 37.900391 65.400391 C 36.800391 64.300391 36.199219 62.900391 36.199219 61.400391 C 36.199219 58.300391 38.699219 55.800781 41.699219 55.800781 L 63.5 55.800781 L 64 55.800781 L 83.699219 55.800781 C 83.999219 57.700781 83.999609 59.699609 83.599609 61.599609 C 83.499609 62.299609 83.399609 63.000781 83.599609 63.800781 C 83.999609 66.400781 86.099219 68.399219 88.699219 68.699219 C 90.299219 68.899219 91.800391 68.499219 92.900391 67.699219 C 93.300391 67.399219 93.899219 67.400781 94.199219 67.800781 C 94.799219 68.500781 95.800391 68.899219 96.900391 68.699219 C 98.100391 68.499219 99.100391 67.600391 99.400391 66.400391 C 99.500391 65.800391 99.500781 65.300781 99.300781 64.800781 C 99.100781 64.300781 99.5 63.7 100 63.5 C 102.9 62.7 105.00078 59.700391 104.30078 56.400391 C 104.20078 55.800391 103.89961 55.199219 103.59961 54.699219 C 104.09961 54.199219 104.40039 53.499219 104.40039 52.699219 C 104.50039 50.999219 103.2 49.699219 101.5 49.699219 L 96.5 49.699219 L 96.5 37.199219 C 96.5 19.199219 81.9 4.6992188 64 4.6992188 z M 77.962891 67.287109 C 75.850391 67.324609 73.750781 67.799219 71.800781 68.699219 C 70.300781 69.399219 69.600781 71.199219 70.300781 72.699219 C 70.800781 73.799219 71.9 74.5 73 74.5 C 73.4 74.5 73.799219 74.399219 74.199219 74.199219 C 76.599219 73.099219 79.400781 73.099609 81.800781 74.099609 C 83.300781 74.699609 85.099219 74 85.699219 72.5 C 86.399219 70.9 85.699219 69.2 84.199219 68.5 C 82.199219 67.65 80.075391 67.249609 77.962891 67.287109 z M 49.261719 67.386719 C 47.149219 67.424219 45.049609 67.900781 43.099609 68.800781 C 41.599609 69.500781 40.899609 71.300781 41.599609 72.800781 C 42.099609 73.900781 43.200781 74.599609 44.300781 74.599609 C 44.700781 74.599609 45.1 74.500781 45.5 74.300781 C 47.9 73.200781 50.699609 73.199219 53.099609 74.199219 C 54.699609 74.699219 56.499609 74 57.099609 72.5 C 57.699609 71 57 69.199609 55.5 68.599609 C 53.5 67.749609 51.374219 67.349219 49.261719 67.386719 z M 50 79.800781 A 3 3 0 0 0 47 82.800781 A 3 3 0 0 0 50 85.800781 A 3 3 0 0 0 53 82.800781 A 3 3 0 0 0 50 79.800781 z M 78 79.800781 A 3 3 0 0 0 75 82.800781 A 3 3 0 0 0 78 85.800781 A 3 3 0 0 0 81 82.800781 A 3 3 0 0 0 78 79.800781 z M 59.599609 94.699219 C 58.299609 94.699219 57.200781 95.499609 56.800781 96.599609 L 56 98.599609 C 55.3 100.59961 56.700781 102.69922 58.800781 102.69922 L 69.099609 102.69922 C 71.199609 102.69922 72.600391 100.59961 71.900391 98.599609 L 71.199219 96.599609 C 70.799219 95.399609 69.600391 94.699219 68.400391 94.699219 L 59.599609 94.699219 z" fill="#000000"/></svg>
