<svg xmlns="http://www.w3.org/2000/svg" width="48" height="48" viewBox="0 0 48 48"><path fill="#68362B" d="M41 31.5c0 1.381-1.119 2.5-2.5 2.5h-29C8.119 34 7 32.881 7 31.5l0 0C7 30.119 8.119 29 9.5 29h29C39.881 29 41 30.119 41 31.5L41 31.5zM38.5 18c0 0-.252-.3-2-1-2.5-1-23.5-1-25 0-1.044.696-2 1-2 1C8.119 18 7 19.119 7 20.5S8.119 23 9.5 23h29c1.381 0 2.5-1.119 2.5-2.5S39.881 18 38.5 18z"/><path fill="#FFC107" d="M8 35v4.75C8 40.993 9.007 42 10.25 42h27.5c1.243 0 2.25-1.007 2.25-2.25V35H8zM24 6C15.164 6 8 10.478 8 16h32C40 10.478 32.837 6 24 6z"/><path fill="#FF3D00" d="M7 24H41V28H7z"/><path fill="#CE8106" d="M16 12A1 1 0 1 0 16 14 1 1 0 1 0 16 12zM18 9A1 1 0 1 0 18 11 1 1 0 1 0 18 9zM20 12A1 1 0 1 0 20 14 1 1 0 1 0 20 12z"/><g><path fill="#8BC34A" d="M41.911 35.403c-.285-.855-.956-1.509-1.805-2.003C39.671 33.77 39.115 34 38.5 34h-29c-.646 0-1.229-.252-1.673-.654C7.25 33.922 6.8 34.57 6.625 35.155c-.409 1.361-.635 3.548 1.254 3.417.888-.062 1.724-.396 2.426-.906 1.094-.794 1.548-1.021 2.366-.008.795.984 1.428 1.834 2.438.647 1.048-1.233 1.182-1.913 2.974-1.548 1.876.383 3.45 1.683 5.364 1.986.932.146 1.337.128 1.89-.672.451-.652.862-2.06 1.734-2.193 1.422-.217.349 1.371.308 2.09-.106 1.82 1.893.265 2.426-.357.333-.389.825-1.193 1.431-1.039.66.17.322.52.466 1.063.134.506.586 1.372 1.197 1.364.749-.01 1.101-1.332 1.479-1.868.307-.432.879-1.183 1.479-1.146.665.042.847.873 1.181 1.418.686 1.119 2.586 2.152 3.811 1.258C41.633 38.088 42.232 36.365 41.911 35.403zM40.105 15.735H8.069c-.958.406-1.687.917-1.862 1.5-.412 1.361-.356 2.467 1.548 2.336.894-.062 1.736-.396 2.444-.906 1.103-.794 1.56-1.021 2.385-.008.801.984 1.439 1.834 2.456.647 1.056-1.233 1.191-1.913 2.996-1.548 1.892.383 3.477 1.683 5.407 1.986.938.146 1.349.128 1.903-.672.455-.652.869-2.06 1.749-2.193 1.433-.217.352 1.371.31 2.09-.106 1.82 1.907.265 2.444-.357.336-.389.832-1.193 1.442-1.039.665.17.325.52.47 1.063.135.506.591 1.372 1.206 1.364.756-.01 1.11-1.332 1.492-1.868.308-.432.885-1.183 1.489-1.146.67.042.854.873 1.189 1.418.691 1.119 2.607 2.152 3.841 1.258.791-.573.8-.963.475-1.925C41.21 17.007 40.722 16.334 40.105 15.735z"/></g><g><path fill="#FFEB3B" d="M39 29c-15 0-21 3-21 3s-4-3-9-3v-1h30V29zM9 24c15 0 21 3 21 3s4-3 9-3v-1H9V24z"/></g></svg>