<svg xmlns="http://www.w3.org/2000/svg" viewBox="0 0 48 48"><path fill="#37474f" d="M36,17H24H12c0,0-3,10-3,18l15,1l15-1C39,27,36,17,36,17z"/><path fill="#37474f" d="M24,24c-8.284,0-15,7.686-15,11c10,1,14.966,7.975,14.966,7.975L24,43l0.034-0.025 C24.034,42.975,29,36,39,35C39,31.686,32.284,24,24,24z"/><path fill="#78909c" d="M23.1,5.2L0.6,15.1c-0.8,0.4-0.8,1.5,0,1.9l22.5,9.9c0.6,0.2,1.2,0.2,1.8,0L47.4,17 c0.8-0.4,0.8-1.5,0-1.9L24.9,5.2C24.3,4.9,23.7,4.9,23.1,5.2z"/><path fill="#ffb300" d="M5,39c-0.552,0-1-0.447-1-1V18c0-0.492,0.358-0.911,0.844-0.988l19-3 c0.542-0.083,1.058,0.286,1.144,0.832c0.086,0.545-0.286,1.058-0.832,1.144L6,18.854V38C6,38.553,5.552,39,5,39z"/><path fill="#ffb300" d="M5,38c1.7,0,3,1.3,3,3s-3,6-3,6s-3-4.3-3-6S3.3,38,5,38z"/><path fill="#ffca28" d="M5 36A2 2 0 1 0 5 40A2 2 0 1 0 5 36Z"/></svg>