<svg xmlns="http://www.w3.org/2000/svg" viewBox="0 0 40 40"><path fill="#ffc49c" d="M18.072,28.5c-3.722,0-9.989-1.851-11.586-5.198L0.56,10.882c0.502-0.888,2.785-4.489,8.068-7.135 C12.334,1.89,15.469,1.5,17.447,1.5c0.762,0,1.315,0.06,1.608,0.102l5.922,12.413c2.013,4.219-2.183,12.859-4.729,14.135 C19.798,28.375,19.024,28.5,18.072,28.5z"/><path fill="#a16a4a" d="M17.448,2L17.448,2c0.545,0,0.977,0.032,1.274,0.064l5.805,12.166 c1.973,4.135-2.411,12.425-4.501,13.472C19.847,27.791,19.298,28,18.072,28c-3.671,0-9.682-1.869-11.135-4.913l-5.812-12.18 c0.674-1.109,2.93-4.31,7.726-6.713C12.47,2.381,15.524,2,17.448,2 M17.448,1C15.5,1,12.247,1.374,8.404,3.3 C2.12,6.449,0,10.869,0,10.869s3.914,8.204,6.035,12.648C7.717,27.044,14.168,29,18.072,29c1.016,0,1.859-0.133,2.401-0.404 c2.626-1.316,7.118-10.264,4.956-14.797c-2.163-4.533-6.035-12.648-6.035-12.648S18.684,1,17.448,1L17.448,1z"/><path fill="#d19c78" d="M1.126,10.907l5.812,12.18C8.39,26.131,14.401,28,18.072,28c1.135,0,1.685-0.177,1.903-0.275 L8.832,4.204C4.05,6.606,1.799,9.799,1.126,10.907z"/><path fill="#a16a4a" d="M6.272,15.004c0.154-0.604,0.522-1.382,1.397-1.821c0.35-0.175,0.719-0.264,1.097-0.264 c0.438,0,0.836,0.12,1.151,0.258L6.272,15.004z"/><path fill="#704e34" d="M8.765,12.419c-0.413,0-0.86,0.087-1.321,0.317c-1.857,0.931-1.783,3.132-1.783,3.132 s1.682-0.843,2.645-1.325s2.645-1.325,2.645-1.325S10.018,12.419,8.765,12.419L8.765,12.419z"/><path fill="#a16a4a" d="M12.494,22.503c-0.036-1.549,0.361-4.018,2.946-5.368c0.808-0.422,1.646-0.636,2.49-0.636 c1.494,0,2.774,0.668,3.619,1.264c-1.358,0.008-3.326,0.223-5.147,1.173C14.547,19.905,13.246,21.424,12.494,22.503z"/><path fill="#704e34" d="M17.93,17L17.93,17c0.686,0,1.326,0.156,1.892,0.381c-1.138,0.15-2.424,0.472-3.651,1.112 c-1.246,0.65-2.253,1.538-3.022,2.388c0.268-1.191,0.949-2.481,2.523-3.303C16.407,17.195,17.167,17,17.93,17 M17.929,16 c-0.848,0-1.766,0.194-2.721,0.693C10.929,18.927,12.166,24,12.166,24s1.508-3.075,4.467-4.62 c1.784-0.931,3.732-1.116,4.997-1.116c0.833,0,1.37,0.08,1.37,0.08S20.881,16,17.929,16L17.929,16z"/><path fill="#a16a4a" d="M15.088,10.586c0.154-0.604,0.521-1.382,1.397-1.82c0.35-0.176,0.719-0.265,1.096-0.265 c0.439,0,0.837,0.119,1.152,0.258L15.088,10.586z"/><path fill="#704e34" d="M17.581,8.001c-0.413,0-0.86,0.087-1.321,0.317c-1.857,0.931-1.783,3.132-1.783,3.132 s1.682-0.843,2.645-1.325C18.085,9.643,19.767,8.8,19.767,8.8S18.834,8.001,17.581,8.001L17.581,8.001z"/><path fill="#ffeea3" d="M22.574,38.5c-0.489,0-0.903-0.053-1.198-0.153c-1.31-0.444-3.757-3.038-5.428-6.453 c-1.356-2.772-1.779-5.231-1.192-6.923l4.525-13.035c0.513-0.136,1.868-0.437,3.821-0.437c2.339,0,4.752,0.416,7.171,1.237 c5.76,1.955,8.537,5.212,9.167,6.036l-4.524,13.032C33.552,35.739,26.093,38.5,22.574,38.5z"/><path fill="#f5c276" d="M23.104,12L23.104,12c2.284,0,4.642,0.407,7.01,1.211c5.211,1.768,7.927,4.639,8.765,5.659 l-4.433,12.771C33.248,35.09,26.302,38,22.574,38c-0.55,0-0.867-0.069-1.037-0.126c-1.22-0.414-3.577-3.005-5.14-6.201 c-1.277-2.613-1.703-4.996-1.168-6.538l4.436-12.778C20.275,12.215,21.471,12,23.104,12 M23.103,11 c-2.641,0-4.209,0.528-4.209,0.528s-2.99,8.613-4.61,13.279c-1.62,4.665,4.073,13.044,6.931,14.014 C21.572,38.942,22.034,39,22.574,39c3.786,0,11.371-2.867,12.817-7.032C37.042,27.21,40,18.69,40,18.69s-2.727-4.106-9.565-6.426 C27.545,11.283,25.037,11,23.103,11L23.103,11z"/><g><path fill="#f5c276" d="M30.435,12.264c-6.838-2.32-11.541-0.735-11.541-0.735s-2.99,8.613-4.61,13.279 c-1.62,4.665,4.073,13.044,6.931,14.014L30.435,12.264z"/></g><path fill="#a16a4a" d="M14.285,24.807c1.62-4.666,4.61-13.279,4.61-13.279S20.462,11,23.103,11	c0.318,0,0.656,0.011,1.004,0.028c-0.158-0.331-0.318-0.667-0.48-1.005C23.453,10.019,23.277,10,23.103,10	c-2.773,0-4.458,0.557-4.528,0.581l-0.465,0.157L17.95,11.2l-4.61,13.279c-0.37,1.066-0.426,2.345-0.189,3.76	c0.358,0.103,0.717,0.197,1.073,0.279C13.939,27.175,13.909,25.889,14.285,24.807z"/><g><path fill="#b08159" d="M21.052,18.92c0.376-0.217,0.885-0.42,1.47-0.42c0.285,0,0.572,0.048,0.854,0.144 c0.958,0.325,1.434,1.052,1.667,1.63L21.052,18.92z"/><path fill="#a16a4a" d="M22.522,18C21.029,18,20,19.091,20,19.091s1.831,0.621,2.878,0.977 c1.047,0.355,2.878,0.977,2.878,0.977s-0.199-2.188-2.22-2.874C23.181,18.05,22.841,18,22.522,18L22.522,18z"/></g><g><path fill="#b08159" d="M25.979,31.5c-0.631,0-1.289-0.118-1.955-0.351c-2.803-0.979-3.419-3.316-3.514-4.79 c0.819,0.878,2.213,2.074,4.186,2.763c1.348,0.47,2.808,0.709,4.339,0.709c0.286,0,0.55-0.009,0.786-0.022 C29.064,30.557,27.758,31.5,25.979,31.5L25.979,31.5z"/><path fill="#a16a4a" d="M21.281,27.76c0.832,0.679,1.916,1.368,3.251,1.835c1.208,0.422,2.502,0.664,3.853,0.723 C27.745,30.702,26.94,31,25.978,31c-0.575,0-1.177-0.108-1.79-0.322C22.455,30.072,21.646,28.882,21.281,27.76 M20.055,25 c0,0-0.809,5.011,3.804,6.622C24.623,31.889,25.331,32,25.978,32C29.241,32,31,29.177,31,29.177s-0.778,0.155-1.966,0.155 c-1.126,0-2.621-0.139-4.173-0.681C21.671,27.537,20.055,25,20.055,25L20.055,25z"/></g><g><path fill="#b08159" d="M29.901,22.253c0.376-0.217,0.885-0.42,1.47-0.42c0.285,0,0.572,0.048,0.854,0.144 c0.958,0.325,1.434,1.052,1.667,1.629L29.901,22.253z"/><path fill="#a16a4a" d="M31.372,21.333c-1.493,0-2.522,1.091-2.522,1.091s1.831,0.621,2.878,0.977 c1.047,0.355,2.878,0.977,2.878,0.977s-0.199-2.188-2.22-2.874C32.03,21.383,31.691,21.333,31.372,21.333L31.372,21.333z"/></g></svg>