<svg xmlns="http://www.w3.org/2000/svg" viewBox="0 0 48 48"><path fill="#BF360C" d="M29 12.9H39V24.1H29z"/><path fill="#3F51B5" d="M44,31v12H24V31c0-6.9,6.9-8.1,6.9-8.1h6.3C37.1,22.9,44,24.1,44,31z"/><path fill="#FF9800" d="M34,26.3c-2.4,0-3-3.3-3-3.3v-3.9h6V23C37,23,36.4,26.3,34,26.3z"/><path fill="#FFB74D" d="M40,11.3c0-5.1-12-3.3-12,0c0,0.7,0,4,0,4.7c0,3.3,2.7,6,6,6s6-2.7,6-6C40,15.3,40,12,40,11.3z"/><path fill="#FF5722" d="M34,5c-3.8,0-9,2.7-9,17l4,1.5V15l7-4l3,3v9.5l4-2.5c0-5.3-0.2-15-6.6-15l-0.6-1H34z"/><path fill="#FFB74D" d="M34,27c-2.7,0-3-4-3-4s0.9,3,3,3c2.1,0,3-3,3-3S36.7,27,34,27z"/><path fill="#784719" d="M36.5 16A.6.6 0 1 0 36.5 17.200000000000003.6.6 0 1 0 36.5 16zM31.5 15.9A.6.6 0 1 0 31.5 17.1.6.6 0 1 0 31.5 15.9z"/><path fill="#FF9800" d="M14,26.6c-3.2,0-3-3.6-3-3.6v-3.6h6V23C17,23,17.2,26.6,14,26.6z"/><path fill="#FFA726" d="M19.5 14A1.5 1.5 0 1 0 19.5 17 1.5 1.5 0 1 0 19.5 14zM8.5 14A1.5 1.5 0 1 0 8.5 17 1.5 1.5 0 1 0 8.5 14z"/><path fill="#FFB74D" d="M20,11.3c0-5.1-12-3.3-12,0c0,0.7,0,4,0,4.7c0,3.3,2.7,6,6,6s6-2.7,6-6C20,15.3,20,12,20,11.3z"/><path fill="#424242" d="M14,5c-4.3,0-7,3.4-7,7.7C7,13.3,7,15,7,15l1.4,0.5V12l8.4-2.8l2.8,2.8v3.5L21,15c0,0,0-1.7,0-2.3c0-2.8-0.7-5.6-4.2-6.3L16.1,5H14z"/><path fill="#784719" d="M16.5 14.9A.6.6 0 1 0 16.5 16.1.6.6 0 1 0 16.5 14.9zM11.5 14.9A.6.6 0 1 0 11.5 16.1.6.6 0 1 0 11.5 14.9z"/><path fill="#009688" d="M17,22.9c0,0-0.4,2.1-3,2.1s-3-2.1-3-2.1S4,24.1,4,31v12h20V31C24,24.1,17,22.9,17,22.9z"/><path fill="#FF9800" d="M24,40c-2.2,0-2-2-2-2v-2.8h4V38C26,38,26.2,40,24,40z"/><path fill="#FFA726" d="M28 31.1A1 1 0 1 0 28 33.1 1 1 0 1 0 28 31.1zM20 31.1A1 1 0 1 0 20 33.1 1 1 0 1 0 20 31.1z"/><path fill="#FFB74D" d="M28,30c0-3.4-8-2.2-8,0c0,0.5,0,2.6,0,3.1c0,2.2,1.8,4,4,4s4-1.8,4-4C28,32.6,28,30.4,28,30z"/><path fill="#FF5722" d="M24,25.1c-3,0-5,2.5-5,5.5c0,0.4,0,1.6,0,1.6l1,0.4v-2.5l6-2l2,2v2.5l1-0.4c0,0,0-1.2,0-1.6c0-2-0.5-4-3-4.5l-0.5-1H24z"/><g><path fill="#784719" d="M25.5 32A.5.5 0 1 0 25.5 33 .5.5 0 1 0 25.5 32zM22.5 32A.5.5 0 1 0 22.5 33 .5.5 0 1 0 22.5 32z"/></g><g><path fill="#00BCD4" d="M26,37.3c0,0-0.3,1.7-2,1.7s-2-1.7-2-1.7s-5,0.9-5,5.7h14C31,38.2,26,37.3,26,37.3z"/></g></svg>