<svg xmlns="http://www.w3.org/2000/svg" viewBox="0 0 48 48"><path fill="#ffcc80" d="M48,27c0-1.4-1-2.6-2.4-2.9C44.8,18.4,39.9,14,34,14c-5.9,0-10.8,4.4-11.6,10.1 C21,24.4,20,25.6,20,27c0,1.3,0.9,2.4,2.1,2.8c0,0.2,0.1,0.3,0.1,0.5c1.6,6,6.7,8.6,11.8,8.6c4.9,0,10.2-2.6,11.8-8.6 c0.1-0.2,0.1-0.4,0.1-0.5C47.1,29.4,48,28.3,48,27z"/><path fill="#4e342e" d="M40,26.5c0,0.8-0.7,1.5-1.5,1.5S37,27.3,37,26.5s0.7-1.5,1.5-1.5S40,25.7,40,26.5z"/><path fill="#ff5722" d="M34,34c-2.8,0-4.5-1.1-4.6-1.2c-0.5-0.3-0.6-0.9-0.3-1.4c0.3-0.5,0.9-0.6,1.4-0.3 c0,0,1.3,0.8,3.5,0.8c2.1,0,3.4-0.8,3.4-0.8c0.5-0.3,1.1-0.2,1.4,0.3c0.3,0.5,0.2,1.1-0.3,1.4C38.5,32.9,36.8,34,34,34z"/><path fill="#795548" d="M35,16h-2c0-2.8-2.5-3-3-3l0-2C31.7,11,35,12,35,16z"/><path fill="#795548" d="M35,16h-2c0-4.6,3.3-6.8,3.5-6.8l1.1,1.7L37,10l0.5,0.8C37.4,10.9,35,12.5,35,16z"/><path fill="#ffcc80" d="M28,27c0-1.4-1-2.6-2.4-2.9C24.8,18.4,19.9,14,14,14C8.1,14,3.2,18.4,2.4,24.1C1,24.4,0,25.6,0,27 c0,1.3,0.9,2.4,2.1,2.8c0,0.2,0.1,0.3,0.1,0.5C3.8,36.4,8.9,39,14,39c4.9,0,10.2-2.6,11.8-8.6c0.1-0.2,0.1-0.4,0.1-0.5 C27.1,29.4,28,28.3,28,27z"/><path fill="#ffa726" d="M27.4,22.6c-0.4-1.7-1.1-3.3-2.1-4.7c-0.5,0.5-0.9,1.1-1.3,1.7c0.8,1.3,1.4,2.9,1.6,4.5 C27,24.4,28,25.6,28,27c0,1.3-0.9,2.4-2.1,2.8c0,0.2-0.1,0.3-0.1,0.5c-0.4,1.5-1,2.8-1.8,3.9c0.4,0.6,0.9,1.1,1.4,1.6 c1-1.3,1.8-2.8,2.3-4.6c1.4-0.9,2.4-2.5,2.4-4.2C30,25.2,29,23.5,27.4,22.6z"/><path fill="#4e342e" d="M20 26.5c0 .8-.7 1.5-1.5 1.5S17 27.3 17 26.5s.7-1.5 1.5-1.5S20 25.7 20 26.5zM11 26.5c0 .8-.7 1.5-1.5 1.5S8 27.3 8 26.5 8.7 25 9.5 25 11 25.7 11 26.5z"/><path fill="#ff5722" d="M14,34c-2.8,0-4.5-1.1-4.6-1.2c-0.5-0.3-0.6-0.9-0.3-1.4c0.3-0.5,0.9-0.6,1.4-0.3 c0,0,1.3,0.8,3.5,0.8c2.1,0,3.4-0.8,3.4-0.8c0.5-0.3,1.1-0.2,1.4,0.3c0.3,0.5,0.2,1.1-0.3,1.4C18.5,32.9,16.8,34,14,34z"/><path fill="#795548" d="M15,16h-2c0-2.8-2.5-3-3-3l0-2C11.7,11,15,12,15,16z"/><path fill="#795548" d="M15,16h-2c0-4.6,3.3-6.8,3.5-6.8l1.1,1.7L17,10l0.5,0.8C17.4,10.9,15,12.5,15,16z"/><path fill="#4e342e" d="M31,26.5c0,0.8-0.7,1.5-1.5,1.5S28,27.3,28,26.5s0.7-1.5,1.5-1.5S31,25.7,31,26.5z"/></svg>