<svg xmlns="http://www.w3.org/2000/svg" viewBox="0 0 48 48"><linearGradient id="4ByoDdgY7~F_kBUGvpRk2a" x1="10.487" x2="21.704" y1=".518" y2="19.757" gradientUnits="userSpaceOnUse"><stop offset="0" stop-color="#f09701"/><stop offset="1" stop-color="#e36001"/></linearGradient><path fill="url(#4ByoDdgY7~F_kBUGvpRk2a)" d="M19,15c0,0.12,0,0.24,0.01,0.35C17.54,14.49,15.83,14,14,14c-1.82,0-3.52,0.49-4.99,1.34	C9,15.23,9,15.12,9,15C9,9.48,13.48,5,19,5c1.82,0,3.53,0.49,5,1.34C21.01,8.07,19,11.3,19,15z"/><linearGradient id="4ByoDdgY7~F_kBUGvpRk2b" x1="24.254" x2="23.406" y1="20.384" y2="2.318" gradientUnits="userSpaceOnUse"><stop offset="0" stop-color="#ed6c47"/><stop offset="1" stop-color="#ff8f6b"/></linearGradient><path fill="url(#4ByoDdgY7~F_kBUGvpRk2b)" d="M29,15c0,0.12,0,0.24-0.01,0.35c-2.89,1.67-4.86,4.75-4.98,8.3c0,0,0,0,0,0.01	c-0.01,0-0.01,0-0.01,0c-0.01,0-0.01,0-0.01,0c0-0.01,0-0.01,0-0.01c-0.12-3.55-2.09-6.63-4.98-8.3C19,15.24,19,15.12,19,15	c0-3.7,2.01-6.93,5-8.66C26.99,8.07,29,11.3,29,15z"/><linearGradient id="4ByoDdgY7~F_kBUGvpRk2c" x1="36.846" x2="28.107" y1="4.451" y2="14.886" gradientUnits="userSpaceOnUse"><stop offset="0" stop-color="#f44f5a"/><stop offset=".443" stop-color="#ee3d4a"/><stop offset="1" stop-color="#e52030"/></linearGradient><path fill="url(#4ByoDdgY7~F_kBUGvpRk2c)" d="M39,15c0,0.12,0,0.23-0.01,0.34C37.52,14.49,35.82,14,34,14c-1.83,0-3.54,0.49-5.01,1.35	C29,15.24,29,15.12,29,15c0-3.7-2.01-6.93-5-8.66C25.47,5.49,27.18,5,29,5C34.52,5,39,9.48,39,15z"/><linearGradient id="4ByoDdgY7~F_kBUGvpRk2d" x1="33.06" x2="24.386" y1="8.008" y2="23.203" gradientUnits="userSpaceOnUse"><stop offset="0" stop-color="#f44f5a"/><stop offset=".443" stop-color="#ee3d4a"/><stop offset="1" stop-color="#e52030"/></linearGradient><path fill="url(#4ByoDdgY7~F_kBUGvpRk2d)" d="M28.99,15.35c-0.12,3.55-2.09,6.63-4.98,8.3C24.13,20.1,26.1,17.02,28.99,15.35z"/><path d="M24.01,23.66C24,23.72,24,23.78,24,23.84c0.05-0.03,0.11-0.06,0.16-0.09C24.11,23.72,24.06,23.7,24.01,23.66z"/><linearGradient id="4ByoDdgY7~F_kBUGvpRk2e" x1="49.565" x2="29.082" y1="24" y2="24" gradientUnits="userSpaceOnUse"><stop offset="0" stop-color="#9631cc"/><stop offset="1" stop-color="#7717a2"/></linearGradient><path fill="url(#4ByoDdgY7~F_kBUGvpRk2e)" d="M44,24c0,3.7-2.01,6.93-5,8.66V32.5c0-3.77-2.08-7.05-5.16-8.75	c2.98-1.65,5.03-4.79,5.15-8.41C41.98,17.06,44,20.3,44,24z"/><linearGradient id="4ByoDdgY7~F_kBUGvpRk2f" x1="44.539" x2="18.974" y1="13.788" y2="24.94" gradientUnits="userSpaceOnUse"><stop offset="0" stop-color="#e83c67"/><stop offset=".423" stop-color="#c5214a"/><stop offset=".773" stop-color="#b01038"/><stop offset="1" stop-color="#a80a31"/></linearGradient><path fill="url(#4ByoDdgY7~F_kBUGvpRk2f)" d="M38.99,15.34c-0.12,3.62-2.17,6.76-5.15,8.41c-1.44-0.8-3.09-1.25-4.84-1.25	s-3.4,0.45-4.84,1.25c-0.05-0.03-0.1-0.05-0.15-0.09c0-0.01,0-0.01,0-0.01c2.89-1.67,4.86-4.75,4.98-8.3C30.46,14.49,32.17,14,34,14	C35.82,14,37.52,14.49,38.99,15.34z"/><linearGradient id="4ByoDdgY7~F_kBUGvpRk2g" x1=".457" x2="12.972" y1="24" y2="24" gradientUnits="userSpaceOnUse"><stop offset="0" stop-color="#ffd869"/><stop offset="1" stop-color="#fec52b"/></linearGradient><path fill="url(#4ByoDdgY7~F_kBUGvpRk2g)" d="M14.16,23.75C11.08,25.45,9,28.73,9,32.5v0.16C6.01,30.93,4,27.7,4,24s2.02-6.94,5.01-8.66	C9.13,18.96,11.18,22.1,14.16,23.75z"/><linearGradient id="4ByoDdgY7~F_kBUGvpRk2h" x1="2.814" x2="25.053" y1="11.036" y2="24.797" gradientUnits="userSpaceOnUse"><stop offset="0" stop-color="#fed100"/><stop offset="1" stop-color="#e38101"/></linearGradient><path fill="url(#4ByoDdgY7~F_kBUGvpRk2h)" d="M23.99,23.65c0,0,0,0,0,0.01c-0.05,0.04-0.1,0.06-0.15,0.09c-1.44-0.8-3.09-1.25-4.84-1.25	s-3.4,0.45-4.84,1.25c-2.98-1.65-5.03-4.79-5.15-8.41C10.48,14.49,12.18,14,14,14c1.83,0,3.54,0.49,5.01,1.35	C19.13,18.9,21.1,21.98,23.99,23.65z"/><linearGradient id="4ByoDdgY7~F_kBUGvpRk2i" x1="14.481" x2="26.285" y1="8.293" y2="27.141" gradientUnits="userSpaceOnUse"><stop offset="0" stop-color="#f09701"/><stop offset="1" stop-color="#e36001"/></linearGradient><path fill="url(#4ByoDdgY7~F_kBUGvpRk2i)" d="M23.99,23.65c-2.89-1.67-4.86-4.75-4.98-8.3C21.9,17.02,23.87,20.1,23.99,23.65z"/><path d="M24,23.84c-0.05-0.03-0.11-0.06-0.16-0.09c0.05-0.03,0.1-0.05,0.15-0.09C24,23.72,24,23.78,24,23.84z"/><linearGradient id="4ByoDdgY7~F_kBUGvpRk2j" x1="6.959" x2="23.328" y1="34.172" y2="23.998" gradientUnits="userSpaceOnUse"><stop offset="0" stop-color="#4caf50"/><stop offset=".489" stop-color="#4aaf50"/><stop offset=".665" stop-color="#43ad50"/><stop offset=".79" stop-color="#38aa50"/><stop offset=".892" stop-color="#27a550"/><stop offset=".978" stop-color="#11a050"/><stop offset="1" stop-color="#0a9e50"/></linearGradient><path fill="url(#4ByoDdgY7~F_kBUGvpRk2j)" d="M24,23.84v0.01c-2.99,1.72-5,4.95-5,8.65v0.15C17.53,33.51,15.82,34,14,34s-3.53-0.49-5-1.34	V32.5c0-3.77,2.08-7.05,5.16-8.75C15.6,24.55,17.25,25,19,25s3.4-0.45,4.84-1.25C23.89,23.78,23.95,23.81,24,23.84z"/><linearGradient id="4ByoDdgY7~F_kBUGvpRk2k" x1="8.87" x2="17.309" y1="23.75" y2="23.75" gradientUnits="userSpaceOnUse"><stop offset="0" stop-color="#ffd869"/><stop offset="1" stop-color="#fec52b"/></linearGradient><ellipse cx="19" cy="23.75" fill="url(#4ByoDdgY7~F_kBUGvpRk2k)" rx="4.84" ry="1.25"/><linearGradient id="4ByoDdgY7~F_kBUGvpRk2l" x1="11.22" x2="21.068" y1="44.358" y2="30.466" gradientUnits="userSpaceOnUse"><stop offset="0" stop-color="#21ad64"/><stop offset="1" stop-color="#088242"/></linearGradient><path fill="url(#4ByoDdgY7~F_kBUGvpRk2l)" d="M24,41.16c-1.47,0.85-3.18,1.34-5,1.34c-5.47,0-9.91-4.39-10-9.84	c1.47,0.85,3.18,1.34,5,1.34s3.53-0.49,5-1.35C19.06,36.29,21.05,39.45,24,41.16z"/><linearGradient id="4ByoDdgY7~F_kBUGvpRk2m" x1="15.054" x2="26.011" y1="39.799" y2="20.168" gradientUnits="userSpaceOnUse"><stop offset="0" stop-color="#21ad64"/><stop offset="1" stop-color="#088242"/></linearGradient><path fill="url(#4ByoDdgY7~F_kBUGvpRk2m)" d="M24,23.85V24c0,3.7-2.01,6.93-5,8.65V32.5C19,28.8,21.01,25.57,24,23.85z"/><linearGradient id="4ByoDdgY7~F_kBUGvpRk2n" x1="24.479" x2="23.5" y1="42.944" y2="22.009" gradientUnits="userSpaceOnUse"><stop offset="0" stop-color="#1a9ba1"/><stop offset="1" stop-color="#038387"/></linearGradient><path fill="url(#4ByoDdgY7~F_kBUGvpRk2n)" d="M29,32.65v0.01c-0.06,3.64-2.05,6.79-5,8.5c-2.95-1.71-4.94-4.87-5-8.51	c2.99-1.72,5-4.95,5-8.65C24,27.7,26.01,30.93,29,32.65z"/><linearGradient id="4ByoDdgY7~F_kBUGvpRk2o" x1="33.72" x2="21.002" y1="41.616" y2="18.072" gradientUnits="userSpaceOnUse"><stop offset="0" stop-color="#2aa4f4"/><stop offset="1" stop-color="#007ad9"/></linearGradient><path fill="url(#4ByoDdgY7~F_kBUGvpRk2o)" d="M29,32.5v0.15c-2.99-1.72-5-4.95-5-8.65v-0.15C26.99,25.57,29,28.8,29,32.5z"/><linearGradient id="4ByoDdgY7~F_kBUGvpRk2p" x1="40.63" x2="14.267" y1="23.75" y2="23.75" gradientUnits="userSpaceOnUse"><stop offset="0" stop-color="#9631cc"/><stop offset="1" stop-color="#7717a2"/></linearGradient><ellipse cx="29" cy="23.75" fill="url(#4ByoDdgY7~F_kBUGvpRk2p)" rx="4.84" ry="1.25"/><linearGradient id="4ByoDdgY7~F_kBUGvpRk2q" x1="42.889" x2="17.193" y1="35.3" y2="19.387" gradientUnits="userSpaceOnUse"><stop offset=".002" stop-color="#427fdb"/><stop offset=".397" stop-color="#2668cb"/><stop offset=".763" stop-color="#1358bf"/><stop offset="1" stop-color="#0c52bb"/></linearGradient><path fill="url(#4ByoDdgY7~F_kBUGvpRk2q)" d="M39,32.5v0.16C37.53,33.51,35.82,34,34,34s-3.53-0.49-5-1.34V32.5c0-3.7-2.01-6.93-5-8.65	v-0.01c0.05-0.03,0.11-0.06,0.16-0.09C25.6,24.55,27.25,25,29,25s3.4-0.45,4.84-1.25C36.92,25.45,39,28.73,39,32.5z"/><linearGradient id="4ByoDdgY7~F_kBUGvpRk2r" x1="35.281" x2="27.52" y1="43.423" y2="30.053" gradientUnits="userSpaceOnUse"><stop offset="0" stop-color="#2aa4f4"/><stop offset="1" stop-color="#007ad9"/></linearGradient><path fill="url(#4ByoDdgY7~F_kBUGvpRk2r)" d="M39,32.66c-0.09,5.45-4.53,9.84-10,9.84c-1.82,0-3.53-0.49-5-1.34c2.95-1.71,4.94-4.86,5-8.5	c1.47,0.85,3.18,1.34,5,1.34S37.53,33.51,39,32.66z"/></svg>