<svg xmlns="http://www.w3.org/2000/svg" viewBox="0 0 48 48"><path fill="#2196f3" d="M31,15v28H9c-2.2,0-4-1.8-4-4V15H31z"/><path fill="#bbdefb" d="M13,5v34c0,2.2-1.8,4-4,4h29c2.2,0,4-1.8,4-4V5H13z"/><path fill="#64b5f6" d="M19 10H37V14H19zM19 17H27V19H19zM29 17H37V19H29zM19 21H27V23H19zM29 21H37V23H29zM19 25H27V27H19zM29 25H37V27H29zM19 29H27V31H19zM29 29H37V31H29zM19 33H27V35H19zM29 33H37V35H29zM19 37H27V39H19zM29 37H37V39H29z"/><path fill="#3f51b5" d="M27 33H47V47H27z"/><path fill="#ffeb3b" d="M37.05,46L37.05,46L37.05,46L37.05,46L37.05,46L37.05,46z M36.04,45.01c0-0.56,0.44-1.01,1-1.01l0,0c0.55-0.01,1,0.439,1,0.99l0,0c0.01,0.55-0.43,1-0.99,1.01l0,0C36.5,46,36.05,45.56,36.04,45.01z M32.8,44.29c-0.39-0.391-0.4-1.021-0.01-1.42l0,0c0.38-0.391,1.01-0.4,1.41-0.011l0,0c0.39,0.381,0.4,1.021,0.01,1.41l0,0c-0.19,0.2-0.45,0.3-0.71,0.3l0,0C33.25,44.569,32.99,44.479,32.8,44.29z M39.86,44.22c-0.39-0.39-0.4-1.02-0.01-1.41l0,0c0.39-0.399,1.02-0.399,1.41-0.01l0,0c0.4,0.38,0.4,1.02,0.01,1.41l0,0l0,0l0,0c-0.19,0.2-0.45,0.3-0.71,0.3l0,0C40.31,44.51,40.05,44.41,39.86,44.22z M31,40.069c0-0.01,0-0.029,0-0.039l0,0c0-0.011,0-0.021,0-0.03l0,0c0-0.55,0.45-1,1-1l0,0c0.55,0,1,0.45,1,1l0,0c0,0.01,0,0.02,0,0.03l0,0c0,0.01,0,0.01,0,0.02l0,0c0,0.55-0.44,1-0.99,1.01l0,0H32l0,0C31.45,41.06,31.01,40.62,31,40.069z M41,39.979v-0.01c0-0.55,0.44-1,0.99-1l0,0c0.56,0,1.01,0.44,1.01,1l0,0c0,0.55-0.44,1-0.99,1l0,0C41.45,40.97,41,40.53,41,39.979z M31,40.069L31,40.069L31,40.069L31,40.069L31,40.069L31,40.069z M43,39.97c0-0.01,0-0.01,0-0.01l0,0C43,39.97,43,39.97,43,39.97L43,39.97L43,39.97z M32.75,37.18c-0.39-0.39-0.39-1.03,0-1.42l0,0c0.39-0.39,1.02-0.39,1.42,0l0,0c0.39,0.39,0.39,1.021,0,1.41l0,0c-0.2,0.2-0.45,0.3-0.71,0.3l0,0C33.2,37.47,32.95,37.37,32.75,37.18z M39.82,37.16c-0.4-0.391-0.4-1.021-0.01-1.42l0,0c0.39-0.391,1.02-0.391,1.41,0l0,0c0.4,0.39,0.4,1.02,0.01,1.409l0,0c-0.2,0.2-0.45,0.301-0.71,0.301l0,0C40.27,37.45,40.01,37.35,39.82,37.16z M36.99,36c-0.55,0-1-0.44-1.01-1l0,0c0-0.55,0.45-1,1-1l0,0c0.55,0,1,0.439,1,1l0,0C37.99,35.55,37.54,36,36.99,36L36.99,36z"/></svg>