<svg xmlns="http://www.w3.org/2000/svg" viewBox="0 0 48 48"><path fill="#bf360c" d="M29,18.9h10v11.2H29V18.9z"/><path fill="#3f51b5" d="M44,37v9H24v-9c0-6.9,6.9-8.1,6.9-8.1h6.3C37.1,28.9,44,30.1,44,37z"/><path fill="#ff9800" d="M34,32.3c-2.4,0-3-3.3-3-3.3v-3.9h6V29C37,29,36.4,32.3,34,32.3z"/><path fill="#ffb74d" d="M40,17.3c0-5.1-12-3.3-12,0c0,0.7,0,4,0,4.7c0,3.3,2.7,6,6,6s6-2.7,6-6C40,21.3,40,18,40,17.3z"/><path fill="#ff5722" d="M34,11c-3.8,0-9,2.7-9,17l4,1.5V21l7-4l3,3v9.5l4-2.5c0-5.3-0.2-15-6.6-15l-0.6-1H34z"/><path fill="#ffb74d" d="M34,33c-2.7,0-3-4-3-4s0.9,3,3,3s3-3,3-3S36.7,33,34,33z"/><path fill="#784719" d="M36.5,22c-0.331,0-0.6,0.269-0.6,0.6s0.269,0.6,0.6,0.6s0.6-0.269,0.6-0.6S36.831,22,36.5,22z M31.5,21.9c-0.331,0-0.6,0.269-0.6,0.6s0.269,0.6,0.6,0.6s0.6-0.269,0.6-0.6S31.831,21.9,31.5,21.9z"/><path fill="#ff9800" d="M14,32.6c-3.2,0-3-3.6-3-3.6v-3.6h6V29C17,29,17.2,32.6,14,32.6z"/><path fill="#ffa726" d="M19.5,20c-0.828,0-1.5,0.672-1.5,1.5s0.672,1.5,1.5,1.5s1.5-0.672,1.5-1.5S20.328,20,19.5,20z M8.5,20C7.672,20,7,20.672,7,21.5S7.672,23,8.5,23s1.5-0.672,1.5-1.5S9.328,20,8.5,20z"/><path fill="#ffb74d" d="M20,17.3c0-5.1-12-3.3-12,0c0,0.7,0,4,0,4.7c0,3.3,2.7,6,6,6s6-2.7,6-6C20,21.3,20,18,20,17.3z"/><path fill="#424242" d="M14,11c-4.3,0-7,3.4-7,7.7C7,19.3,7,21,7,21l1.4,0.5V18l8.4-2.8l2.8,2.8v3.5L21,21c0,0,0-1.7,0-2.3	c0-2.8-0.7-5.6-4.2-6.3L16.1,11H14z"/><path fill="#784719" d="M16.5,20.9c-0.331,0-0.6,0.269-0.6,0.6s0.269,0.6,0.6,0.6s0.6-0.269,0.6-0.6S16.831,20.9,16.5,20.9z M11.5,20.9c-0.331,0-0.6,0.269-0.6,0.6s0.269,0.6,0.6,0.6l0,0c0.331,0,0.6-0.269,0.6-0.6S11.831,20.9,11.5,20.9z"/><path fill="#009688" d="M17,28.9c0,0-0.4,2.1-3,2.1s-3-2.1-3-2.1S4,30.1,4,37v9h20v-9C24,30.1,17,28.9,17,28.9z"/><path fill="#ff9800" d="M24,45c-2.2,0-2-2-2-2v-2.8h4V43C26,43,26.2,45,24,45z"/><path fill="#ffa726" d="M28,36.1c-0.552-0.001-1.001,0.446-1.001,0.999c-0.001,0.552,0.446,1.001,0.999,1.001	c0.001,0,0.002,0,0.003,0c0.552,0.001,1.001-0.446,1.001-0.999c0.001-0.552-0.446-1.001-0.999-1.001	C28.002,36.1,28.001,36.1,28,36.1z M20,36.1c-0.552-0.001-1.001,0.446-1.001,0.999c-0.001,0.552,0.446,1.001,0.999,1.001	c0.001,0,0.002,0,0.003,0c0.552,0.001,1.001-0.446,1.001-0.999c0.001-0.552-0.446-1.001-0.999-1.001	C20.002,36.1,20.001,36.1,20,36.1z"/><path fill="#ffb74d" d="M28,35c0-3.4-8-2.2-8,0c0,0.5,0,2.6,0,3.1c0,2.2,1.8,4,4,4s4-1.8,4-4C28,37.6,28,35.4,28,35z"/><path fill="#ff5722" d="M24,30c-3,0-5,2.533-5,5.573c0,0.405,0,1.621,0,1.621l1,0.405v-2.533l6-2.027l2,2.027V37.6l1-0.405	c0,0,0-1.216,0-1.621c0-2.027-0.5-4.053-3-4.56L25.5,30H24z"/><path fill="#784719" d="M25.5,37c-0.276,0-0.5,0.224-0.5,0.5s0.224,0.5,0.5,0.5s0.5-0.224,0.5-0.5S25.776,37,25.5,37z M22.5,37c-0.276,0-0.5,0.224-0.5,0.5s0.224,0.5,0.5,0.5s0.5-0.224,0.5-0.5S22.776,37,22.5,37z"/><path fill="#00bcd4" d="M26,42.3c0,0-0.3,1.7-2,1.7s-2-1.7-2-1.7c-0.354-0.003-2.736,0.017-4.158,1.857 C17.329,44.821,17.105,45.509,17,46c4.667,0,9.333,0,14,0c-0.105-0.491-0.329-1.179-0.842-1.843 C28.736,42.317,26.354,42.297,26,42.3z"/><polygon fill="#e53935" points="44.644,11.935 24,4.07 3.356,11.935 2.644,10.065 24,1.93 45.356,10.065"/></svg>