<svg xmlns="http://www.w3.org/2000/svg" viewBox="0 0 48 48"><path fill="#ff754c" d="M36.664,36.504L31,33v-3.445l3.257,1.303C34.498,30.953,34.75,31,35,31c0.533,0,1.056-0.215,1.44-0.613c0.565-0.586,0.718-1.455,0.387-2.199l-4-9c-0.153-0.346-0.402-0.641-0.718-0.852C31.967,18.24,28.553,16,24,16c-4.553,0-7.967,2.24-8.109,2.336c-0.315,0.211-0.564,0.506-0.718,0.852l-4,9c-0.331,0.744-0.178,1.613,0.387,2.199c0.564,0.586,1.429,0.77,2.184,0.471L17,29.555V33l-5.664,3.504c-1.1,0.734-1.59,2.102-1.207,3.365C10.512,41.135,11.678,42,13,42h9h4h9c1.322,0,2.488-0.865,2.871-2.131C38.254,38.605,37.764,37.238,36.664,36.504z"/><path fill="#e64a19" d="M21.5 37H31c0 0-6.857-2-9.5-2S17 37.019 17 39.5c0 .925.282 1.784.762 2.5H21.5c-1.375 0-2.5-1.125-2.5-2.5S20.125 37 21.5 37zM31 33v-3.445l-6.743-2.697c-.09-.037-.176-.078-.257-.125-.081.047-.167.088-.257.125L17 29.555V33l7-4.092L31 33zM25.743 23.143L31 25l-1.165-2.621-3.356-1.096C26.004 21.094 25.506 21 25.001 21c-.339 0-.675.042-1.001.126C23.675 21.042 23.338 21 23 21c-.508 0-1.008.096-1.486.285l-3.349 1.094L17 25l5.257-1.857c.138-.055.277-.09.418-.113.043-.006.086-.008.129-.012C22.869 23.012 22.935 23 23 23c.024 0 .047.008.071.008.111.004.22.022.329.045.051.01.102.014.151.029.156.045.308.106.448.186C24.302 23.094 24.647 23 25.001 23 25.248 23 25.499 23.047 25.743 23.143z"/><path fill="#ffb74d" d="M24,7c2.209,0,4,1.791,4,4s-1.791,4-4,4c-2.209,0-4-1.791-4-4S21.791,7,24,7 M29,37h-7.5c-1.375,0-2.5,1.125-2.5,2.5s1.125,2.5,2.5,2.5H29V37z M25.743,23.143C25.499,23.047,25.248,23,25.001,23c-0.354,0-0.699,0.094-1.001,0.268c-0.141-0.08-0.292-0.141-0.448-0.186c-0.05-0.015-0.101-0.019-0.151-0.029c-0.109-0.023-0.218-0.041-0.329-0.045C23.047,23.008,23.024,23,23,23c-0.065,0-0.131,0.012-0.196,0.018c-0.043,0.004-0.086,0.006-0.129,0.012c-0.141,0.023-0.28,0.059-0.418,0.113L17,25v4.555l6.743-2.697c0.09-0.037,0.176-0.078,0.257-0.125c0.081,0.047,0.167,0.088,0.257,0.125L31,29.555V25L25.743,23.143z"/></svg>