<?xml version="1.0" encoding="utf-8"?>
<svg xmlns="http://www.w3.org/2000/svg" viewBox="0 0 50 50" fill="#000000"><path d="M 7 4 C 5.3545455 4 4 5.3545455 4 7 L 4 43 C 4 44.645455 5.3545455 46 7 46 L 43 46 C 44.645455 46 46 44.645455 46 43 L 46 13.199219 A 1.0001 1.0001 0 0 0 45.707031 12.492188 L 37.507812 4.2929688 A 1.0001 1.0001 0 0 0 36.800781 4 L 7 4 z M 7 6 L 12 6 L 12 18 C 12 19.645455 13.354545 21 15 21 L 34 21 C 35.645455 21 37 19.645455 37 18 L 37 6.6132812 L 44 13.613281 L 44 43 C 44 43.554545 43.554545 44 43 44 L 38 44 L 38 29 C 38 27.354545 36.645455 26 35 26 L 15 26 C 13.354545 26 12 27.354545 12 29 L 12 44 L 7 44 C 6.4454545 44 6 43.554545 6 43 L 6 7 C 6 6.4454545 6.4454545 6 7 6 z M 14 6 L 35 6 L 35 18 C 35 18.554545 34.554545 19 34 19 L 15 19 C 14.445455 19 14 18.554545 14 18 L 14 6 z M 29 8 A 1.0001 1.0001 0 0 0 28 9 L 28 16 A 1.0001 1.0001 0 0 0 29 17 L 32 17 A 1.0001 1.0001 0 0 0 33 16 L 33 9 A 1.0001 1.0001 0 0 0 32 8 L 29 8 z M 30 10 L 31 10 L 31 15 L 30 15 L 30 10 z M 15 28 L 35 28 C 35.554545 28 36 28.445455 36 29 L 36 44 L 14 44 L 14 29 C 14 28.445455 14.445455 28 15 28 z M 8 40 L 8 42 L 10 42 L 10 40 L 8 40 z M 40 40 L 40 42 L 42 42 L 42 40 L 40 40 z" fill="#000000"/></svg>
