<svg xmlns="http://www.w3.org/2000/svg" viewBox="0 0 48 48"><path fill="#90caf9" d="M35,44H15c-2.757,0-5-2.243-5-5V24.901c0-2.147,1.158-4.144,3.023-5.209L17,17.42V10h16v7.42 l3.977,2.272C38.842,20.758,40,22.754,40,24.901V39C40,41.757,37.757,44,35,44z"/><path fill="#8d6e63" d="M31 16L19 16 19 8 17 4 33 4 31 8z"/><path fill="#aeea00" d="M12,28v11c0,1.654,1.346,3,3,3h20c1.654,0,3-1.346,3-3V28H12z"/><path fill="#f4ff81" d="M31 34A3 3 0 1 0 31 40A3 3 0 1 0 31 34Z"/><path fill="#ffff8d" d="M18 30A2 2 0 1 0 18 34A2 2 0 1 0 18 30Z"/><path fill="#e3f2fd" d="M30 22A2 2 0 1 0 30 26 2 2 0 1 0 30 22zM22.5 19A1.5 1.5 0 1 0 22.5 22 1.5 1.5 0 1 0 22.5 19z"/><path fill="#90caf9" d="M33,8c-0.931,0-15.07,0-16,0c-1.105,0-2,0.895-2,2c0,1.105,0.895,2,2,2c0.93,0,15.069,0,16,0 c1.105,0,2-0.895,2-2C35,8.895,34.105,8,33,8z"/></svg>