<svg xmlns="http://www.w3.org/2000/svg" viewBox="0 0 64 64"><radialGradient id="gn7vdVpKxZbVKPIoQnUkca" cx="32" cy="35" r="31.504" gradientTransform="matrix(1 0 0 -1 0 66)" gradientUnits="userSpaceOnUse"><stop offset="0" stop-color="#afeeff"/><stop offset=".193" stop-color="#bbf1ff"/><stop offset=".703" stop-color="#d7f8ff"/><stop offset="1" stop-color="#e1faff"/></radialGradient><path fill="url(#gn7vdVpKxZbVKPIoQnUkca)" d="M47.509,40.749C47.634,42.054,48.829,43,50.14,43H60.5c2.173,0,3.895,2.005,3.418,4.249	C63.571,48.882,62.045,50,60.376,50H59c-1.38,0-2.44,1.4-1.82,2.86c0.316,0.743,1.113,1.119,1.92,1.14	c2.355,0.06,4.213,2.172,3.852,4.606C62.673,60.489,60.714,62,58.81,62H4c-2.34,0-4.221-2.031-3.98-4.411	C0.23,55.513,2.104,54,4.19,54h0.7c0.999,0,1.923-0.685,2.082-1.671C7.174,51.073,6.216,50,5,50c-1.851,0-3.322-1.692-2.939-3.603	C2.345,44.972,3.686,44,5.139,44H22v-8H4c-2.34,0-4.221-2.031-3.98-4.411C0.23,29.513,2.104,28,4.19,28H8.5c1.99,0,3.5-11,3.5-11H6	c-2.34,0-4.221-2.031-3.98-4.411C2.23,10.513,4.104,9,6.19,9H21c1.105,0,2-0.895,2-2l0,0c0-1.105-0.895-2-2-2h-5.5	c-1.466,0-2.634-1.254-2.491-2.749C13.134,0.946,14.329,0,15.64,0H48.5c1.466,0,2.634,1.254,2.491,2.749	C50.866,4.054,49.671,5,48.36,5H43c-1.105,0-2,0.895-2,2l0,0c0,1.105,0.895,2,2,2h16.5c1.466,0,2.634,1.254,2.491,2.749	C61.866,13.054,60.671,14,59.36,14H54c-1.216,0-2.174,1.073-1.972,2.329C52.187,17.315,53.111,18,54.11,18h6.39	c0.96,0,1.84,0.39,2.47,1.03c0.611,0.601,0.994,1.431,1.028,2.34c0.074,1.995-1.697,3.63-3.694,3.63H42l14,7h5	c1.851,0,3.322,1.692,2.939,3.603C63.654,37.028,62.314,38,60.861,38H50C48.534,38,47.366,39.254,47.509,40.749z"/><linearGradient id="gn7vdVpKxZbVKPIoQnUkcb" x1="32" x2="32" y1="3805.215" y2="3759.215" gradientTransform="translate(0 -3746)" gradientUnits="userSpaceOnUse"><stop offset="0" stop-color="#ff9757"/><stop offset="1" stop-color="#ffb65b"/><stop offset="1" stop-color="#ffb65b"/></linearGradient><path fill="url(#gn7vdVpKxZbVKPIoQnUkcb)" d="M54,22L32,10L10,22v30c0,2.209,1.791,4,4,4h36c2.209,0,4-1.791,4-4V22z"/><linearGradient id="gn7vdVpKxZbVKPIoQnUkcc" x1="156.013" x2="156.013" y1="4242.352" y2="4204.032" gradientTransform="matrix(.9333 0 0 .8333 -106.107 -3470.287)" gradientUnits="userSpaceOnUse"><stop offset="0" stop-color="#a4a4a4"/><stop offset=".63" stop-color="#7f7f7f"/><stop offset="1" stop-color="#6f6f6f"/></linearGradient><path fill="url(#gn7vdVpKxZbVKPIoQnUkcc)" d="M46,56H33V38c0-1.105,0.895-2,2-2h9c1.105,0,2,0.895,2,2V56z"/><linearGradient id="gn7vdVpKxZbVKPIoQnUkcd" x1="137.263" x2="137.263" y1="4230.902" y2="4204.798" gradientTransform="matrix(.9333 0 0 .8333 -106.107 -3470.287)" gradientUnits="userSpaceOnUse"><stop offset="0" stop-color="#a4a4a4"/><stop offset=".63" stop-color="#7f7f7f"/><stop offset="1" stop-color="#6f6f6f"/><stop offset="1" stop-color="#6f6f6f"/></linearGradient><path fill="url(#gn7vdVpKxZbVKPIoQnUkcd)" d="M25,46h-6c-1.105,0-2-0.895-2-2v-6c0-1.105,0.895-2,2-2h6c1.105,0,2,0.895,2,2v6	C27,45.105,26.105,46,25,46z"/><linearGradient id="gn7vdVpKxZbVKPIoQnUkce" x1="32.002" x2="32.002" y1="31.17" y2="50.158" gradientTransform="matrix(1 0 0 -1 0 66)" gradientUnits="userSpaceOnUse"><stop offset="0" stop-color="#ffda76"/><stop offset=".335" stop-color="#ffe075"/><stop offset="1" stop-color="#ffe673"/></linearGradient><path fill="url(#gn7vdVpKxZbVKPIoQnUkce)" d="M28.002,15h8v13.216c0,2.09-1.694,3.784-3.784,3.784h-0.433c-2.09,0-3.784-1.694-3.784-3.784	V15H28.002z"/><linearGradient id="gn7vdVpKxZbVKPIoQnUkcf" x1="40.002" x2="40.002" y1="55.425" y2="19.924" gradientTransform="matrix(1 0 0 -1 0 66)" gradientUnits="userSpaceOnUse"><stop offset="0" stop-color="#62de8f"/><stop offset=".478" stop-color="#5dd18d"/><stop offset="1" stop-color="#56be89"/></linearGradient><path fill="url(#gn7vdVpKxZbVKPIoQnUkcf)" d="M36.002,15h8v13.216c0,2.09-1.694,3.784-3.784,3.784h-0.433c-2.09,0-3.784-1.694-3.784-3.784	L36.002,15L36.002,15z"/><linearGradient id="gn7vdVpKxZbVKPIoQnUkcg" x1="48.002" x2="48.002" y1="31.17" y2="50.158" gradientTransform="matrix(1 0 0 -1 0 66)" gradientUnits="userSpaceOnUse"><stop offset="0" stop-color="#ffda76"/><stop offset=".335" stop-color="#ffe075"/><stop offset="1" stop-color="#ffe673"/></linearGradient><path fill="url(#gn7vdVpKxZbVKPIoQnUkcg)" d="M44.002,15h8v13.216c0,2.09-1.694,3.784-3.784,3.784h-0.433c-2.09,0-3.784-1.694-3.784-3.784	L44.002,15L44.002,15z"/><linearGradient id="gn7vdVpKxZbVKPIoQnUkch" x1="24.002" x2="24.002" y1="55.425" y2="19.924" gradientTransform="matrix(1 0 0 -1 0 66)" gradientUnits="userSpaceOnUse"><stop offset="0" stop-color="#62de8f"/><stop offset=".478" stop-color="#5dd18d"/><stop offset="1" stop-color="#56be89"/></linearGradient><path fill="url(#gn7vdVpKxZbVKPIoQnUkch)" d="M20.002,15h8v13.216c0,2.09-1.694,3.784-3.784,3.784h-0.433c-2.09,0-3.784-1.694-3.784-3.784	V15H20.002z"/><linearGradient id="gn7vdVpKxZbVKPIoQnUkci" x1="8" x2="8" y1="55.425" y2="19.924" gradientTransform="matrix(1 0 0 -1 0 66)" gradientUnits="userSpaceOnUse"><stop offset="0" stop-color="#62de8f"/><stop offset=".478" stop-color="#5dd18d"/><stop offset="1" stop-color="#56be89"/></linearGradient><path fill="url(#gn7vdVpKxZbVKPIoQnUkci)" d="M12,15v13c0,2.09-1.892,4-4.013,4H7.541c-0.152,0-0.294-0.01-0.447-0.03	C5.095,31.75,3.826,29.88,4.019,28c0.041-0.4,0.152-0.79,0.325-1.17L9,15H12z"/><linearGradient id="gn7vdVpKxZbVKPIoQnUkcj" x1="56.001" x2="56.001" y1="55.425" y2="19.924" gradientTransform="matrix(1 0 0 -1 0 66)" gradientUnits="userSpaceOnUse"><stop offset="0" stop-color="#62de8f"/><stop offset=".478" stop-color="#5dd18d"/><stop offset="1" stop-color="#56be89"/></linearGradient><path fill="url(#gn7vdVpKxZbVKPIoQnUkcj)" d="M52.002,15H55l4.654,11.834c1.032,2.189-0.339,4.863-2.818,5.141	C56.686,31.991,56.533,32,56.378,32h-0.449c-2.169,0-3.927-1.694-3.927-3.784V15z"/><linearGradient id="gn7vdVpKxZbVKPIoQnUkck" x1="32.002" x2="32.002" y1="59.213" y2="51.998" gradientTransform="matrix(1 0 0 -1 0 66)" gradientUnits="userSpaceOnUse"><stop offset="0" stop-color="#62de8f"/><stop offset=".478" stop-color="#5dd18d"/><stop offset="1" stop-color="#56be89"/></linearGradient><path fill="url(#gn7vdVpKxZbVKPIoQnUkck)" d="M55.002,15h-46v-2.933C9.002,10.373,10.375,9,12.069,9h39.865	c1.694,0,3.067,1.373,3.067,3.067L55.002,15L55.002,15z"/><linearGradient id="gn7vdVpKxZbVKPIoQnUkcl" x1="14.012" x2="14.012" y1="36.362" y2="30.042" gradientTransform="matrix(1 0 0 -1 0 66)" gradientUnits="userSpaceOnUse"><stop offset="0" stop-color="#62de8f"/><stop offset=".478" stop-color="#5dd18d"/><stop offset="1" stop-color="#56be89"/></linearGradient><path fill="url(#gn7vdVpKxZbVKPIoQnUkcl)" d="M23.991,25.24c0.152,1.5-1.035,2.76-2.527,2.76H4.019c0.041-0.4,0.152-0.79,0.325-1.17L9,15	h6.883c1.228,0,2.212,1.08,1.999,2.34C17.72,18.32,16.786,19,15.771,19c-1.055,0-1.918,0.85-1.918,1.89V21c0,1.1,0.913,2,2.03,2	h5.44C22.642,23,23.859,23.94,23.991,25.24z"/><linearGradient id="gn7vdVpKxZbVKPIoQnUkcm" x1="24.002" x2="24.002" y1="44.851" y2="32.002" gradientTransform="matrix(1 0 0 -1 0 66)" gradientUnits="userSpaceOnUse"><stop offset="0" stop-color="#62de8f"/><stop offset=".478" stop-color="#5dd18d"/><stop offset="1" stop-color="#56be89"/></linearGradient><path fill="url(#gn7vdVpKxZbVKPIoQnUkcm)" d="M24.002,19L24.002,19c-1.105,0-2-0.895-2-2l0,0c0-1.105,0.895-2,2-2l0,0c1.105,0,2,0.895,2,2	l0,0C26.002,18.105,25.106,19,24.002,19z"/><linearGradient id="gn7vdVpKxZbVKPIoQnUkcn" x1="16.002" x2="16.002" y1="31.17" y2="50.158" gradientTransform="matrix(1 0 0 -1 0 66)" gradientUnits="userSpaceOnUse"><stop offset="0" stop-color="#ffda76"/><stop offset=".335" stop-color="#ffe075"/><stop offset="1" stop-color="#ffe673"/></linearGradient><path fill="url(#gn7vdVpKxZbVKPIoQnUkcn)" d="M12.002,15h8v13.216c0,2.09-1.694,3.784-3.784,3.784h-0.433c-2.09,0-3.784-1.694-3.784-3.784	V15H12.002z"/><linearGradient id="gn7vdVpKxZbVKPIoQnUkco" x1="-722.272" x2="-722.272" y1="545.809" y2="560.686" gradientTransform="translate(8390.389 -22927.227) scale(11.5945)" gradientUnits="userSpaceOnUse"><stop offset="0" stop-color="#ffe191"/><stop offset=".335" stop-color="#ffe691"/><stop offset="1" stop-color="#ffeb8f"/></linearGradient><path fill="url(#gn7vdVpKxZbVKPIoQnUkco)" d="M16.001,15h-4v13h8v-5h-4c-1.099,0-2-0.901-2-2v-0.11c0-1.04,0.849-1.89,1.89-1.89	c1,0,1.92-0.68,2.08-1.66C18.181,16.08,17.211,15,16.001,15"/></svg>