<svg xmlns="http://www.w3.org/2000/svg" viewBox="0 0 48 48"><path fill="#ffba57" d="M42,9v38h-6.31c0,0-3.95-3.2-3.91-5.44c0.02-1.49,1.3-4.34-0.52-8.93c-0.08-0.21-0.17-0.43-0.26-0.66	c-0.43-1.14-0.82-2.46-0.94-4.31c-0.01-0.02-0.01-0.05-0.01-0.08c0.02,0.01,0.04,0.03,0.06,0.05c0.67-0.16,1.23-0.37,1.7-0.63	c0.58-0.32,1.02-0.72,1.33-1.19C32.6,25.69,31.84,25.46,31,25c-0.31-0.17-0.59-0.35-0.86-0.53c-1.93-1.36-2.85-3.17-3.2-3.88	c-0.32-0.66-0.74-1.67-0.96-3.01c-0.15-0.01-0.29-0.02-0.44-0.04c0,0-0.62-0.56,0.49,2.12c0.53,1.27,0.61,2.49,0.19,3.55	C26.15,23.15,26.08,23.07,26,23c-0.63-0.61-0.77-0.7-1-1c-0.1-0.13-0.52-0.69-0.75-1.54c-0.18-0.64-0.11-1.23-0.1-1.92	c0.05-2.79,1.19-4.59,2.73-5.73c2.11-1.57,4.97-1.91,6.78-1.88c0,0,3.26-1.95,4.65-1.93H42z"/><path fill="#f9a825" d="M42,21.64v4.47c-0.01,0.02-0.02,0.05-0.03,0.07c-0.07,0.17-0.2,0.32-0.38,0.52	c-0.1,0.1-0.18,0.18-0.36,0.32c-0.31,0.24-0.59,0.41-0.91,0.55c-0.63,0.3-1.29,0.45-1.94,0.55c-0.66,0.09-1.33,0.13-1.98,0.1	c-1.32-0.05-2.59-0.29-3.81-0.79c-0.26-0.11-0.51-0.23-0.78-0.43c-0.05-0.04-0.11-0.08-0.16-0.13l-0.13-0.12l-0.07-0.08l-0.03-0.04	l-0.13-0.17l-0.26-0.37c-0.31-0.47-0.53-0.93-0.75-1.34c-0.05-0.09-0.09-0.19-0.14-0.28c-0.69-1.43-1-2.47-1.03-2.61	c0.1,0.1,0.95,0.98,2.08,2.27c0.3,0.35,0.64,0.7,0.98,1.07l0.24,0.24l0.15,0.14l0.04,0.04v-0.01l0.03,0.01	c0.1,0.05,0.3,0.12,0.51,0.19c0.02,0,0.03,0,0.05,0.01c0.47,0.14,1.01,0.24,1.57,0.29c0.55,0.08,1.13,0.11,1.69,0.12	c1.13,0.02,2.27-0.08,3.15-0.37c0.22-0.07,0.44-0.18,0.57-0.26c0.06-0.01,0.18-0.11,0.28-0.19c0-0.01,0.06-0.04,0.11-0.11	c0.23-0.26,0.41-0.7,0.57-1.09c0.17-0.4,0.28-0.8,0.41-1.15c0.11-0.36,0.21-0.67,0.3-0.92C41.9,21.94,41.96,21.77,42,21.64z"/><path fill="#f9a825" d="M41.9,22.16c-0.11,0.55-0.23,1.33-0.18,2.32c0.03,0.44,0.08,0.91,0.28,1.46V21.7	C41.97,21.83,41.93,21.98,41.9,22.16z M35.07,22.95c-0.56,0-1,0.45-1,1c0,0.55,0.44,1,1,1c0.55,0,1-0.45,1-1	C36.07,23.4,35.62,22.95,35.07,22.95z"/><path fill="#f9a825" d="M41.93,32.06c0,0-0.34,0.93-0.6,2.34c-0.1,0.51-0.19,1.07-0.27,1.68c-0.03,0.23-0.06,0.47-0.08,0.71	c-0.04,0.4-0.08,0.81-0.1,1.23c-0.03,0.5-0.05,1.01-0.06,1.52c-0.01,0.52-0.01,1.03,0.01,1.54c0.01,0.41,0.03,0.82,0.06,1.22	c0.02,0.25,0.04,0.49,0.06,0.73c0.063,0.752,0.116,1.22,0.21,1.68c0.065,0.32,0.137,0.545,0.84,2.29l0,0l0,0l0,0l0,0l0,0l0,0	c0-0.307,0-0.613,0-0.92C41.977,41.407,41.953,36.733,41.93,32.06z"/><path fill="#f9a825" d="M41.79,41.06c-0.32-0.01-0.64,0-0.96,0.02c-0.91,0.04-1.78,0.17-2.48,0.35	c-0.95,0.22-1.58,0.55-1.58,0.55s0.62,0.34,1.56,0.6c0.73,0.22,1.65,0.38,2.62,0.45c0.27,0.01,0.54,0.03,0.81,0.03H42v-2H41.79z M41.87,36.06c-0.27,0-0.54,0-0.81,0.02c-0.97,0.03-1.89,0.16-2.63,0.35c-0.95,0.22-1.58,0.55-1.58,0.55s0.63,0.34,1.56,0.6	c0.69,0.21,1.56,0.36,2.47,0.44c0.31,0.02,0.64,0.03,0.96,0.04H42v-2H41.87z"/><path fill="#ffba57" d="M33.14,25.81C32.6,25.69,31.84,25.46,31,25c-2.53-1.36-3.66-3.6-4.06-4.41	c-0.32-0.66-0.74-1.67-0.96-3.01c-0.15-0.01-0.29-0.02-0.44-0.04c0,0-0.62-0.56,0.49,2.12c0.53,1.27,0.61,2.49,0.19,3.55	c0.33,0.33,0.6,0.6,0.78,0.79l1.12,1.12c-0.25,0-0.49,0.07-0.78,0.18c-0.29,0.07-0.53,0.18-0.74,0.33	c-0.04,0.03-0.08,0.05-0.12,0.08c-0.36,0.25-0.69,0.58-1.24,0.95c-0.01,0-0.01,0-0.02,0.01c-0.01,0.01-0.01,0.01-0.02,0.01	c-0.65,0.43-1.58,0.89-3.17,1.34c-2.39,0.67-5.81,0.61-9.12-0.85c-2.32-1.02-6.79-3.63-7.83-4.88c-0.4-0.48-0.5-3.37,0.19-6.88	c1.03-5.32,2.34-7.73,3.29-9.53c1.53-2.5,3.01-3.68,3.71-3.84c0.71-0.16,5.12-0.44,5.97,0.1c0.87,0.54,0.79,0.95,1.2,1.95	s0.17,1.5-0.03,2.22c-0.07,0.25-0.36,0.78-0.76,0.57c-0.12,0.38-0.81,0.77-1.2,0.36c-0.16,0.51-0.96,0.48-1.2,0.21	c-0.17,0.48-0.86,0.15-1.08,0.01c-0.16-0.11-0.38-0.27-0.53-0.45c-0.03-0.02-0.54-0.74-0.22-0.89c-0.67,0.32-1,0.23-1.38,0.85	c-0.38,0.63-1.44,2.11-0.82,4.44c0.71,2.65,0.34,4.69-0.2,5.56c0,0,0.71-0.17,1.41-0.33c1.54-1.8,4.28-3.97,9.5-0.72	c1.21-1.46,2.56-2.6,3.95-3.11c1.77-0.65,3.61-0.29,5.38,1.68C33.36,19.19,34.81,23.4,33.14,25.81z"/><path fill="#f9a825" d="M31,11.141c-1.004,0.082-3.02,0.386-5.074,1.755c-1.54,1.026-2.481,2.238-2.996,3.022	c0.286,0.328,0.702,0.813,1.195,1.41c2.091,2.533,2.508,3.394,2.688,3.798c0.205,0.463,0.468,1.16,0.638,2.072	c0.654,0.341,1.307,0.681,1.961,1.022c-1.056-2.348-1.612-4.367-1.923-5.798c-0.529-2.428-0.368-3.228-0.233-3.677	C27.923,12.526,30.205,11.468,31,11.141z"/><path fill="#f9a825" d="M19.319,14.372c0,0-0.007-0.006-0.013-0.011c-2.883-0.586-4.705,0.909-5.873,2.277	c-0.705,0.164-1.411,0.328-1.411,0.328s1.475,6.347,9.128,6.892c0,0-6.398-2.074-5.274-6.301	C16.632,14.407,18.614,14.536,19.319,14.372z"/><path fill="#f9a825" d="M33.14,25.81c-0.57,0.85-1.54,1.47-3.03,1.82c-0.02-0.02-0.04-0.04-0.06-0.05c0,0,0,0,0-0.01	c-1.83-1.75-1.32-2.6-2.71-2.27c0.29-0.11,0.53-0.18,0.78-0.18L27,24c-0.18-0.19-0.45-0.46-0.78-0.79c0.42-1.06,0.34-2.28-0.19-3.55	c-1.11-2.68-0.49-2.12-0.49-2.12c0.15,0.02,0.29,0.03,0.44,0.04c0.22,1.34,0.64,2.35,0.96,3.01c0.4,0.81,1.53,3.05,4.06,4.41	C31.84,25.46,32.6,25.69,33.14,25.81z"/><path fill="#f9a825" d="M28.12,25.12c-0.25,0-0.49,0.07-0.78,0.18c-0.27,0.1-0.52,0.21-0.74,0.33	c-0.04,0.03-0.08,0.05-0.12,0.08c-0.58,0.33-0.98,0.71-1.24,0.95c-0.01,0-0.01,0-0.02,0.01c-0.01,0.01-0.01,0.01-0.02,0.01	c-0.74,0.63-1.55,0.88-3.17,1.34c-2.39,0.67-5.81,0.61-9.12-0.85c-1.09-0.48-2.1-1.44-3.72-2.27c7.38,2.64,12.31,1.66,12.31,1.66	c2.61-0.66,4.15-1.86,4.72-3.35c0.33,0.33,0.6,0.6,0.78,0.79L28.12,25.12z"/><path fill="#f9a825" d="M33.19,25.82c-0.4,0.59-0.82,1.32-1.19,2.18c-0.65,1.54-0.91,2.93-1,3.97	c-0.43-1.14-0.82-2.46-0.94-4.31c0.02-0.01,0.03-0.02,0.05-0.03c1.49-0.35,2.46-0.97,3.03-1.82C33.16,25.81,33.17,25.82,33.19,25.82	z"/><path fill="#f9a825" d="M12.907,27.167c1.201,0.53,2.415,0.87,3.59,1.063c1.383-0.217,2.879-0.671,4.496-1.456	c-5.318,0.307-8.35-2.582-10.582-3.882c-4.914-2.863-3.308-5.504-2.439-10.561c0.685-3.989,0.699-6.373,1.752-8.128	c-0.168,0.213-0.34,0.446-0.513,0.692C9.19,4.926,9.169,4.951,9.146,4.983C8.953,5.259,8.758,5.556,8.561,5.876	c-0.95,1.806-2.257,4.218-3.294,9.535c-0.685,3.513-0.586,6.397-0.183,6.884C6.117,23.541,10.593,26.147,12.907,27.167z"/></svg>