<svg xmlns="http://www.w3.org/2000/svg" width="48" height="48" viewBox="0 0 48 48"><path fill="#546E7A" d="M11.169 11H22.831000000000003V13H11.169z" transform="rotate(59.036 17 12)"/><path fill="#546E7A" d="M22.5 8.55H24.5V18.448999999999998H22.5z" transform="rotate(45.001 23.5 13.5)"/><path fill="#CFD8DC" d="M5 16H43V42H5z"/><path fill="#37474F" d="M32,36c-0.27,0.993-1.014,1.676-2,2c0,0-4.5,1-9.5,1S11,38,11,38c-0.929-0.278-1.691-0.936-2-2c0,0-1-3-1-7s1-7,1-7c0.296-1.041,0.928-1.615,2-2c0,0,4.5-1,9.5-1s9.5,1,9.5,1c1.086,0.322,1.813,0.938,2,2c0,0,1,3,1,7S32,36,32,36z"/><path fill="#FF1744" d="M38 20A2 2 0 1 0 38 24A2 2 0 1 0 38 20Z"/><g><path fill="#90A4AE" d="M35.084 32H41V34H35.084zM35.084 28H41V30H35.084zM35.084 36H41V38H35.084z"/></g></svg>